<svg width="50" height="49" viewBox="0 0 50 49" fill="none" xmlns="http://www.w3.org/2000/svg">
<path d="M38.14 15.4897C36.3768 15.4897 34.9424 16.9242 34.9424 18.6874C34.9424 20.4506 36.3768 21.885 38.14 21.885C39.9033 21.885 41.3377 20.4506 41.3377 18.6874C41.3377 16.9242 39.9033 15.4897 38.14 15.4897ZM38.14 20.6399C37.0634 20.6399 36.1875 19.764 36.1875 18.6874C36.1875 17.6108 37.0634 16.7349 38.14 16.7349C39.2166 16.7349 40.0925 17.6108 40.0925 18.6874C40.0925 19.764 39.2167 20.6399 38.14 20.6399Z" fill="#3C3C3C"/>
<path d="M38.1403 19.5492C38.6161 19.5492 39.0019 19.1635 39.0019 18.6877C39.0019 18.2119 38.6161 17.8262 38.1403 17.8262C37.6645 17.8262 37.2788 18.2119 37.2788 18.6877C37.2788 19.1635 37.6645 19.5492 38.1403 19.5492Z" fill="#3C3C3C"/>
<path d="M7.56044 36.1602C5.7972 36.1602 4.36279 37.5946 4.36279 39.3578C4.36279 41.121 5.7972 42.5554 7.56044 42.5554C9.32367 42.5554 10.7581 41.121 10.7581 39.3578C10.7581 37.5946 9.32367 36.1602 7.56044 36.1602ZM7.56044 41.3103C6.48384 41.3103 5.60794 40.4344 5.60794 39.3578C5.60794 38.2812 6.48384 37.4053 7.56044 37.4053C8.63703 37.4053 9.51293 38.2812 9.51293 39.3578C9.51293 40.4344 8.63715 41.3103 7.56044 41.3103Z" fill="#3C3C3C"/>
<path d="M7.5605 40.2196C8.03631 40.2196 8.42203 39.8339 8.42203 39.3581C8.42203 38.8823 8.03631 38.4966 7.5605 38.4966C7.08469 38.4966 6.69897 38.8823 6.69897 39.3581C6.69897 39.8339 7.08469 40.2196 7.5605 40.2196Z" fill="#3C3C3C"/>
<path d="M16.4242 3.09961C14.661 3.09961 13.2266 4.53402 13.2266 6.29725C13.2266 8.06049 14.661 9.49489 16.4242 9.49489C18.1874 9.49489 19.6218 8.06049 19.6218 6.29725C19.6218 4.53402 18.1874 3.09961 16.4242 3.09961ZM16.4242 8.24975C15.3476 8.24975 14.4717 7.37385 14.4717 6.29725C14.4717 5.22066 15.3476 4.34475 16.4242 4.34475C17.5008 4.34475 18.3767 5.22066 18.3767 6.29725C18.3767 7.37385 17.5008 8.24975 16.4242 8.24975Z" fill="#3C3C3C"/>
<path d="M16.424 7.1586C16.8998 7.1586 17.2856 6.77288 17.2856 6.29707C17.2856 5.82127 16.8998 5.43555 16.424 5.43555C15.9482 5.43555 15.5625 5.82127 15.5625 6.29707C15.5625 6.77288 15.9482 7.1586 16.424 7.1586Z" fill="#3C3C3C"/>
<path d="M30.5739 35.7266H24.127C23.7831 35.7266 23.5044 36.0052 23.5044 36.3491C23.5044 36.693 23.7831 36.9717 24.127 36.9717H30.5739C30.9178 36.9717 31.1964 36.693 31.1964 36.3491C31.1964 36.0052 30.9176 35.7266 30.5739 35.7266Z" fill="#3C3C3C"/>
<path d="M30.5739 38.8159H24.127C23.7831 38.8159 23.5044 39.0946 23.5044 39.4385C23.5044 39.7824 23.7831 40.0611 24.127 40.0611H30.5739C30.9178 40.0611 31.1964 39.7824 31.1964 39.4385C31.1964 39.0946 30.9176 38.8159 30.5739 38.8159Z" fill="#3C3C3C"/>
<path d="M30.5739 41.9053H24.127C23.7831 41.9053 23.5044 42.184 23.5044 42.5278C23.5044 42.8717 23.7831 43.1504 24.127 43.1504H30.5739C30.9178 43.1504 31.1964 42.8717 31.1964 42.5278C31.1964 42.184 30.9176 41.9053 30.5739 41.9053Z" fill="#3C3C3C"/>
<path d="M48.3306 13.5655H42.8815V9.52207C42.8815 9.35692 42.8159 9.19856 42.6992 9.08185L33.7983 0.182357C33.6816 0.065653 33.5232 0 33.3581 0H10.9645C10.6206 0 10.3419 0.278686 10.3419 0.622572V29.9514H0.622572C0.278686 29.9514 0 30.2301 0 30.5739V48.1419C0 48.4858 0.278686 48.7645 0.622572 48.7645H35.4091C35.753 48.7645 36.0316 48.4858 36.0316 48.1419V43.9561H42.2589C42.6028 43.9561 42.8815 43.6774 42.8815 43.3335V23.8095H48.3306C49.2511 23.8095 50 23.0606 50 22.1401V15.235C50 14.3144 49.2512 13.5655 48.3306 13.5655ZM33.9808 2.12546L40.7558 8.8995H33.9808V2.12546ZM34.7865 47.5194H1.24514V31.1965H34.7865V47.5194ZM41.6364 42.7109H36.0316V30.5739C36.0316 30.2301 35.753 29.9514 35.4091 29.9514H11.5871V1.24514H32.7356V9.52207C32.7356 9.86596 33.0143 10.1446 33.3582 10.1446H41.6364V13.5655H34.7099C33.7894 13.5655 33.0405 14.3144 33.0405 15.2349V22.14C33.0405 23.0605 33.7894 23.8094 34.7099 23.8094H41.6364V42.7109ZM48.7549 22.1401C48.7549 22.3741 48.5646 22.5644 48.3306 22.5644H34.7099C34.4759 22.5644 34.2856 22.3741 34.2856 22.1401V15.235C34.2856 15.001 34.4759 14.8108 34.7099 14.8108H48.3306C48.5646 14.8108 48.7549 15.001 48.7549 15.235V22.1401Z" fill="#3C3C3C"/>
<path d="M46.6913 16.9902H42.6619C42.318 16.9902 42.0393 17.2689 42.0393 17.6128C42.0393 17.9567 42.318 18.2354 42.6619 18.2354H46.6913C47.0352 18.2354 47.3138 17.9567 47.3138 17.6128C47.3138 17.2689 47.0352 16.9902 46.6913 16.9902Z" fill="#3C3C3C"/>
<path d="M46.6913 19.1392H42.6619C42.318 19.1392 42.0393 19.4178 42.0393 19.7617C42.0393 20.1056 42.318 20.3843 42.6619 20.3843H46.6913C47.0352 20.3843 47.3138 20.1056 47.3138 19.7617C47.3138 19.4178 47.0352 19.1392 46.6913 19.1392Z" fill="#3C3C3C"/>
<path d="M6.23302 28.8641C6.30863 29.1324 6.55347 29.3177 6.83216 29.3177C7.11084 29.3177 7.35568 29.1324 7.4313 28.8641L8.56325 24.8495C8.57876 24.7945 8.58668 24.7377 8.58668 24.6805V3.56593C8.58668 3.22205 8.30799 2.94336 7.96411 2.94336H5.70021C5.35632 2.94336 5.07764 3.22205 5.07764 3.56593V24.6806C5.07764 24.7378 5.08545 24.7946 5.10107 24.8496L6.23302 28.8641ZM6.52268 25.3032H7.14175L6.83216 26.4011L6.52268 25.3032ZM7.34153 4.1885V24.0581H6.32278V4.1885H7.34153Z" fill="#3C3C3C"/>
<path d="M0.622572 29.3178H2.88647C3.23036 29.3178 3.50904 29.0391 3.50904 28.6952V7.5805C3.50904 7.52334 3.50123 7.46651 3.48561 7.4115L2.35366 3.39693C2.27805 3.12866 2.03321 2.94336 1.75452 2.94336C1.47584 2.94336 1.23099 3.12866 1.15538 3.39693L0.0234313 7.4115C0.00781045 7.46651 0 7.52334 0 7.5805V28.6952C0 29.039 0.278686 29.3178 0.622572 29.3178ZM1.24514 28.0726V8.20307H2.2639V28.0726H1.24514ZM2.06411 6.95793H1.44493L1.75452 5.86005L2.06411 6.95793Z" fill="#3C3C3C"/>
</svg>
