<svg width="56" height="35" viewBox="0 0 56 35" fill="none" xmlns="http://www.w3.org/2000/svg">
<path d="M33.6608 9.33008C33.0768 9.33008 32.6034 9.80357 32.6034 10.3875V30.9773L28.9926 29.4729C28.4535 29.2483 27.8345 29.5032 27.6098 30.0422C27.385 30.5813 27.6401 31.2004 28.1791 31.425L33.2541 33.5397C33.3849 33.5943 33.523 33.621 33.6607 33.621C33.8666 33.621 34.0711 33.561 34.2474 33.4434C34.5416 33.2473 34.7183 32.9172 34.7183 32.5636V10.3875C34.7182 9.80357 34.2449 9.33008 33.6608 9.33008Z" fill="#3C3C3C"/>
<path d="M34.2473 1.45156C33.9532 1.25545 33.5806 1.21924 33.2541 1.3553L12.9875 9.79974H4.5941C2.06085 9.79974 0 11.8606 0 14.3937V20.5006C0 23.0337 2.06085 25.0946 4.5941 25.0946H12.9875L25.044 30.1183C25.177 30.1738 25.3147 30.1999 25.4503 30.1999C25.8646 30.1999 26.2576 29.955 26.4269 29.549C26.6516 29.0099 26.3966 28.3908 25.8576 28.1662L14.2563 23.3322V16.7805C14.2563 16.1966 13.7831 15.7231 13.1989 15.7231C12.6147 15.7231 12.1414 16.1966 12.1414 16.7805V22.9798H4.5941C3.22712 22.9798 2.11477 21.8677 2.11477 20.5007V14.3938C2.11477 13.0269 3.22701 11.9147 4.5941 11.9147H12.1413V13.6643C12.1413 14.2483 12.6146 14.7217 13.1988 14.7217C13.7828 14.7217 14.2562 14.2483 14.2562 13.6643V11.5623L32.6034 3.91764V7.27087C32.6034 7.85483 33.0767 8.32832 33.6608 8.32832C34.245 8.32832 34.7183 7.85483 34.7183 7.27087V2.33148C34.7182 1.97776 34.5415 1.64756 34.2473 1.45156Z" fill="#3C3C3C"/>
<path d="M48.0042 0.353591C47.5784 0.0500744 47.0398 -0.0657542 46.5276 0.0361837C46.0155 0.138012 45.5632 0.45017 45.2863 0.892812L43.9356 3.05341C43.4107 3.89287 43.6275 5.01014 44.4294 5.59727C47.7017 7.99171 49.6554 12.4122 49.6554 17.4218C49.6554 19.7975 49.1972 22.1249 48.3304 24.1526C47.4642 26.1789 46.197 27.8785 44.6665 29.0681C43.8817 29.678 43.6985 30.8016 44.2494 31.6261L45.6655 33.7453C45.9549 34.1783 46.4156 34.4763 46.9293 34.5627C47.0337 34.5803 47.1386 34.589 47.243 34.589C47.6566 34.589 48.0649 34.4542 48.3981 34.202C50.8521 32.3431 52.8459 29.7305 54.1643 26.647C55.3652 23.8377 56.0001 20.6478 56.0001 17.422C56.0002 10.3042 53.011 3.9236 48.0042 0.353591ZM52.2197 25.8156C51.0777 28.4869 49.3782 30.7522 47.2973 32.3806L46.1184 30.6166C47.862 29.2156 49.2969 27.2725 50.2751 24.9843C51.2533 22.696 51.7703 20.0811 51.7703 17.4221C51.7703 11.8182 49.5548 6.82063 45.8339 4.00662L46.9584 2.20772C51.2365 5.36605 53.8852 11.1708 53.8852 17.4221C53.8853 20.3645 53.3094 23.2669 52.2197 25.8156Z" fill="#3C3C3C"/>
<path d="M43.6181 7.64829C43.1994 7.29413 42.6465 7.13959 42.1043 7.22446C41.5579 7.30988 41.0764 7.62773 40.7831 8.09662L39.4132 10.288C38.9446 11.0378 39.0551 12.0047 39.6819 12.6396C40.3806 13.3474 41.1965 15.0244 41.1965 17.4216C41.1965 18.9727 40.7394 21.1163 39.7357 22.1576C39.1051 22.8117 39.0142 23.7916 39.5147 24.5406L40.9469 26.6839C41.2526 27.1411 41.7406 27.4437 42.286 27.5143C42.3675 27.5247 42.4488 27.5299 42.5298 27.5299C42.9889 27.5299 43.4353 27.363 43.7826 27.0556C46.1359 24.9741 47.5409 21.3725 47.5409 17.4215C47.5409 13.3789 46.0745 9.72533 43.6181 7.64829ZM42.5665 25.3016L41.368 23.5076C42.7997 21.9187 43.3114 19.2549 43.3113 17.4215C43.3113 14.9149 42.5601 12.6299 41.2952 11.267L42.4429 9.43089C44.2886 11.124 45.4262 14.1556 45.4262 17.4216C45.4262 20.666 44.3614 23.5878 42.5665 25.3016Z" fill="#3C3C3C"/>
</svg>
