<svg width="49" height="43" viewBox="0 0 49 43" fill="none" xmlns="http://www.w3.org/2000/svg">
<path d="M33.026 1.60733H4.63269C2.9644 1.60733 1.60714 2.96459 1.60714 4.63298V37.4479C1.60714 39.1163 2.9644 40.4735 4.63269 40.4735H10.0504C10.4943 40.4735 10.854 40.8333 10.854 41.277C10.854 41.7208 10.4943 42.0806 10.0504 42.0806H4.63269C2.07819 42.0806 0 40.0023 0 37.4479V4.63298C0 2.07838 2.07819 0.000190735 4.63269 0.000190735H33.0261C33.47 0.000190735 33.8296 0.35994 33.8296 0.803715C33.8296 1.24749 33.4699 1.60733 33.026 1.60733Z" fill="#00C896"/>
<path d="M44.3672 42.0806H13.0181C12.5743 42.0806 12.2146 41.7208 12.2146 41.277C12.2146 40.8333 12.5743 40.4734 13.0181 40.4734H44.3673C46.0356 40.4734 47.3929 39.1162 47.3929 37.4478V4.63288C47.3929 2.96449 46.0356 1.60723 44.3673 1.60723H36.2403C35.7965 1.60723 35.4368 1.24749 35.4368 0.803715C35.4368 0.35994 35.7965 0.000190735 36.2403 0.000190735H44.3673C46.9218 0.000190735 49 2.07838 49 4.63298V37.4478C48.9999 40.0022 46.9217 42.0806 44.3672 42.0806Z" fill="#00C896"/>
<path d="M42.1577 38.4785H6.84213C5.05555 38.4785 3.6022 37.0252 3.6022 35.2386V30.0639C3.60192 30.0531 3.60211 30.0424 3.6022 30.0316V6.84277C3.6022 5.05992 5.04961 3.60916 6.83103 3.60303C6.83466 3.60303 6.8384 3.60246 6.84213 3.60246C6.84309 3.60246 6.84395 3.60265 6.8449 3.60265H18.7049C18.706 3.60265 18.7073 3.60246 18.7083 3.60246C18.7083 3.60246 18.7101 3.60265 18.7109 3.60265H42.1577C43.9441 3.60275 45.3976 5.05609 45.3976 6.84267V23.1457C45.3976 23.146 45.3976 23.1465 45.3976 23.1469V35.2386C45.3976 37.0252 43.9441 38.4785 42.1577 38.4785ZM6.32859 5.29391C5.67934 5.50991 5.20944 6.12203 5.20944 6.84277V12.7118C6.94262 14.6041 9.10024 15.6154 11.6299 15.7135C12.4065 15.7437 13.1076 15.6793 13.6763 15.5891C10.4239 12.7252 7.78652 8.84411 6.32859 5.29391ZM5.20934 29.6271C5.90319 30.0824 6.70374 30.3214 7.54641 30.3214C9.39194 30.3214 11.0228 29.145 11.6047 27.3938C11.6811 27.1638 11.8572 26.9806 12.0843 26.8952C12.311 26.8099 12.5644 26.8314 12.7736 26.9539C13.4877 27.3724 14.3037 27.5936 15.1333 27.5936C17.495 27.5936 19.4903 25.8277 19.7744 23.4862C19.8193 23.115 20.1145 22.8239 20.4863 22.784C22.1544 22.6048 23.5238 21.4034 23.976 19.8415C22.6629 19.9223 21.3087 19.7479 19.9383 19.3127C18.3199 18.7986 16.7532 17.952 15.2826 16.8799C14.6309 17.0682 13.2914 17.3759 11.6369 17.3217C9.8717 17.2637 7.4574 16.7691 5.20944 14.9241L5.20934 29.6271ZM43.7903 6.84277C43.7903 5.94249 43.0579 5.20998 42.1576 5.20998H20.0186C20.4928 6.06576 21.0339 6.90038 21.564 7.71501C21.9212 8.26406 22.2907 8.83196 22.637 9.40225C22.8673 9.78162 22.7464 10.2759 22.3671 10.5063C21.9879 10.7364 21.4937 10.6158 21.2631 10.2364C20.9299 9.68744 20.5674 9.13026 20.2168 8.59145C19.5141 7.51145 18.791 6.3988 18.2021 5.20989H8.03621C10.8817 11.787 16.3098 16.4741 20.4246 17.781C22.8825 18.5617 25.1905 18.3892 27.3002 17.2705C27.1461 17.1282 26.9925 16.9843 26.8395 16.8381C25.8114 15.8548 24.7959 14.7655 23.8213 13.6003C23.7102 13.4675 23.6 13.3342 23.4905 13.2002C23.2098 12.8566 23.2608 12.3503 23.6044 12.0696C23.9376 11.7973 24.4566 11.8426 24.7351 12.1835C24.8406 12.3126 24.9467 12.441 25.0539 12.5691C25.9906 13.6889 26.965 14.7343 27.9503 15.6764C29.0675 16.7449 30.2213 17.7019 31.3796 18.5214C32.6586 19.4261 33.9728 20.1844 35.2862 20.7755C36.7263 21.4235 38.2021 21.887 39.6724 22.1528C41.027 22.3978 42.4091 22.4793 43.7902 22.3993V6.84277H43.7903ZM43.7903 24.0079C42.313 24.0862 40.8357 23.9964 39.3864 23.7343C37.7874 23.4451 36.1861 22.9427 34.6268 22.241C33.2193 21.6077 31.8146 20.7976 30.4515 19.8333C29.8239 19.3894 29.1984 18.9073 28.5794 18.3918C27.6522 18.9489 26.6794 19.3478 25.674 19.5885C25.3137 21.8933 23.5442 23.7793 21.2668 24.2823C20.6377 27.1253 18.1007 29.2006 15.1332 29.2006C14.3228 29.2006 13.522 29.0435 12.7763 28.7416C11.7799 30.679 9.77705 31.9284 7.54631 31.9284C6.72805 31.9284 5.93879 31.764 5.20925 31.4472V35.2385C5.20925 36.1388 5.94185 36.8713 6.84213 36.8713H42.1576C43.0578 36.8713 43.7902 36.1388 43.7902 35.2385V24.0079H43.7903Z" fill="#00C896"/>
<path d="M32.6002 32.877C30.2611 32.877 28.3579 30.9738 28.3579 28.6346C28.3579 26.2955 30.2611 24.3923 32.6002 24.3923C34.9394 24.3923 36.8425 26.2955 36.8425 28.6346C36.8426 30.9738 34.9395 32.877 32.6002 32.877ZM32.6002 25.9993C31.1471 25.9993 29.965 27.1815 29.965 28.6345C29.965 30.0877 31.1472 31.2698 32.6002 31.2698C34.0534 31.2698 35.2355 30.0877 35.2355 28.6345C35.2355 27.1815 34.0534 25.9993 32.6002 25.9993Z" fill="#00C896"/>
</svg>
