<svg width="44" height="43" viewBox="0 0 44 43" fill="none" xmlns="http://www.w3.org/2000/svg">
<path d="M29.7233 29.0664H14.4168C14.0336 29.0664 13.7229 29.3771 13.7229 29.7604C13.7229 30.1436 14.0336 30.4543 14.4168 30.4543H29.7233C30.1065 30.4543 30.4172 30.1436 30.4172 29.7604C30.4172 29.3771 30.1065 29.0664 29.7233 29.0664Z" fill="#3C3C3C"/>
<path d="M29.7233 33.231H14.4168C14.0336 33.231 13.7229 33.5416 13.7229 33.9249C13.7229 34.3082 14.0336 34.6188 14.4168 34.6188H29.7233C30.1065 34.6188 30.4172 34.3083 30.4172 33.9249C30.4173 33.5416 30.1065 33.231 29.7233 33.231Z" fill="#3C3C3C"/>
<path d="M25.0971 37.396H14.4168C14.0336 37.396 13.7229 37.7067 13.7229 38.0899C13.7229 38.4732 14.0336 38.7839 14.4168 38.7839H25.097C25.4803 38.7839 25.7909 38.4732 25.7909 38.0899C25.7909 37.7067 25.4803 37.396 25.0971 37.396Z" fill="#3C3C3C"/>
<path d="M39.8185 17.5501C40.3402 17.5501 40.7632 17.1271 40.7632 16.6054C40.7632 16.0836 40.3402 15.6606 39.8185 15.6606C39.2967 15.6606 38.8738 16.0836 38.8738 16.6054C38.8738 17.1271 39.2967 17.5501 39.8185 17.5501Z" fill="#3C3C3C"/>
<path d="M39.8185 21.0632C40.3402 21.0632 40.7632 20.6403 40.7632 20.1185C40.7632 19.5968 40.3402 19.1738 39.8185 19.1738C39.2967 19.1738 38.8738 19.5968 38.8738 20.1185C38.8738 20.6403 39.2967 21.0632 39.8185 21.0632Z" fill="#3C3C3C"/>
<path d="M40.4785 11.6862H32.9722V0.693945C32.9722 0.310664 32.6615 0 32.2782 0H28.2489C27.8656 0 27.5549 0.310664 27.5549 0.693945C27.5549 1.07723 27.8656 1.38789 28.2489 1.38789H31.5843V12.3802V16.5306H18.8379C18.4546 16.5306 18.144 16.8413 18.144 17.2245C18.144 17.6078 18.4546 17.9185 18.8379 17.9185H32.2782C32.6615 17.9185 32.9722 17.6078 32.9722 17.2245V13.0741H35.771V18.7773C35.771 20.2097 34.6057 21.3749 33.1734 21.3749H10.8267C9.39443 21.3749 8.2292 20.2096 8.2292 18.7773V13.0741H11.028V17.2245C11.028 17.6078 11.3387 17.9185 11.722 17.9185H16.0623C16.4456 17.9185 16.7563 17.6078 16.7563 17.2245C16.7563 16.8413 16.4456 16.5306 16.0623 16.5306H12.4159V12.3802V1.38789H25.4732C25.8565 1.38789 26.1672 1.07723 26.1672 0.693945C26.1672 0.310664 25.8565 0 25.4732 0H11.7218C11.3385 0 11.0278 0.310664 11.0278 0.693945V11.6862H3.52155C1.57979 11.6862 0 13.266 0 15.2078V30.5187C0 32.4605 1.57979 34.0403 3.52155 34.0403H11.0278V42.079C11.0278 42.4622 11.3385 42.7729 11.7218 42.7729H32.2781C32.6614 42.7729 32.9721 42.4622 32.9721 42.079V39.6461C32.9721 39.2629 32.6614 38.9522 32.2781 38.9522C31.8948 38.9522 31.5842 39.2629 31.5842 39.6461V41.385H12.4157V26.4646H31.5842V36.8703C31.5842 37.2536 31.8948 37.5642 32.2781 37.5642C32.6614 37.5642 32.9721 37.2536 32.9721 36.8703V34.0402H40.4785C42.4202 34.0402 44 32.4604 44 30.5186V15.2078C44 13.266 42.4203 11.6862 40.4785 11.6862ZM40.4785 32.6523H32.9722V26.4646H35.0461C35.4294 26.4646 35.74 26.154 35.74 25.7707C35.74 25.3874 35.4294 25.0767 35.0461 25.0767H8.95383C8.57055 25.0767 8.25988 25.3874 8.25988 25.7707C8.25988 26.154 8.57055 26.4646 8.95383 26.4646H11.0279V32.6523H3.52155C2.34506 32.6523 1.38789 31.6951 1.38789 30.5186V15.2078C1.38789 14.0313 2.34506 13.0741 3.52155 13.0741H6.84123V18.7773C6.84123 18.846 6.84295 18.9142 6.84638 18.9821C6.94641 20.9492 8.47945 22.5446 10.4198 22.7422C10.5536 22.7557 10.6892 22.7628 10.8267 22.7628H33.1733C33.3107 22.7628 33.4464 22.7558 33.5802 22.7422C35.5205 22.5445 37.0536 20.9492 37.1536 18.9821C37.1571 18.9143 37.1588 18.846 37.1588 18.7773V13.0741H40.4785C41.6549 13.0741 42.6121 14.0313 42.6121 15.2078V30.5186H42.6122C42.6121 31.695 41.6549 32.6523 40.4785 32.6523Z" fill="#3C3C3C"/>
</svg>
