<svg width="462" height="380" viewBox="0 0 462 380" fill="none" xmlns="http://www.w3.org/2000/svg">
<rect width="462" height="371" rx="25" fill="#0066CF"/>
<path fill-rule="evenodd" clip-rule="evenodd" d="M179 182.478C179 213.117 203.838 237.956 234.478 237.956C265.117 237.956 289.956 213.117 289.956 182.478C289.956 151.838 265.117 127 234.478 127C203.838 127 179 151.838 179 182.478Z" fill="#262626"/>
<path d="M205.839 203.368L210.496 210.386M231.594 172.114L249.295 198.78M229.755 202.94C231.198 204.595 231.601 206.915 230.802 208.96C230.002 211.005 228.133 212.436 225.95 212.673C223.768 212.911 221.634 211.916 220.413 210.092L217.98 206.427M214.144 183.751L212.283 181.778C211.779 181.244 211.779 180.41 212.283 179.876L217.276 174.605L215.611 167.543C215.443 166.827 215.861 166.105 216.566 165.895L223.522 163.823L225.595 156.866C225.8 156.171 226.506 155.752 227.214 155.904L234.274 157.582L239.544 152.589C240.079 152.085 240.913 152.085 241.447 152.589L246.718 157.582L253.78 155.917C254.495 155.749 255.218 156.167 255.428 156.872L257.5 163.829L264.457 165.901C265.169 166.111 265.59 166.844 265.411 167.565L263.758 174.597L268.751 179.867C269.254 180.401 269.254 181.236 268.751 181.77L263.758 187.04L265.436 194.1C265.606 194.816 265.187 195.541 264.482 195.751L257.525 197.823L255.453 204.78C255.242 205.484 254.518 205.902 253.802 205.731L246.743 204.067L241.472 209.06C240.938 209.563 240.104 209.563 239.569 209.06L238.568 208.114M248.365 197.376L209.564 208.982L206.771 204.771L232.524 173.518L248.365 197.376Z" stroke="#FAF7FF" stroke-width="2" stroke-linecap="round" stroke-linejoin="round"/>
<path fill-rule="evenodd" clip-rule="evenodd" d="M186.535 154.191C196.113 137.636 214.001 126.49 234.496 126.457V21C187.568 36.8022 145.984 69.1078 119.279 115.361L186.535 154.191Z" fill="#F9F871" fill-opacity="0.95"/>
<path fill-rule="evenodd" clip-rule="evenodd" d="M186.535 209.678C181.812 201.517 179.11 192.041 179.11 181.935C179.11 171.861 181.795 162.414 186.488 154.271L95.1682 101.547C85.3898 150.088 92.5748 202.254 119.279 248.508L186.535 209.678Z" fill="#3C3C3C"/>
<path fill-rule="evenodd" clip-rule="evenodd" d="M234.588 237.412C214.088 237.412 196.185 226.294 186.581 209.758L95.2605 262.482C132.409 295.22 181.179 315.082 234.588 315.082V237.412Z" fill="#00C896"/>
<path fill-rule="evenodd" clip-rule="evenodd" d="M282.641 209.678C273.062 226.233 255.174 237.379 234.68 237.413L234.68 342.869C281.607 327.067 323.192 294.761 349.897 248.508L282.641 209.678Z" fill="#D19F9C"/>
<path fill-rule="evenodd" clip-rule="evenodd" d="M282.641 154.191C287.363 162.352 290.065 171.828 290.065 181.935C290.065 192.009 287.38 201.455 282.687 209.599L374.007 262.322C383.785 213.781 376.6 161.614 349.896 115.361L282.641 154.191Z" fill="#3C3C3C"/>
<path fill-rule="evenodd" clip-rule="evenodd" d="M234.588 126.457C255.087 126.457 272.99 137.576 282.594 154.112L373.915 101.388C336.766 68.6488 287.996 48.7881 234.588 48.7881L234.588 126.457Z" fill="#00C896"/>
<path d="M186.516 78.991C175.213 79.2332 166.174 88.4603 166.165 99.7656C166.073 111.601 175.537 121.3 187.372 121.496C199.156 121.49 208.704 111.932 208.698 100.148C208.707 94.5153 206.467 89.1116 202.477 85.1361C198.486 81.1605 193.073 78.9419 187.44 78.9725C187.13 78.9725 186.823 78.978 186.516 78.991ZM186.516 78.991C175.42 91.0112 175.42 106.693 186.516 121.487M188.365 78.991C199.461 91.0112 199.461 106.687 188.365 121.481M169.652 88.2077H205.036M166.17 99.3033H208.698M168.911 110.399H206.081" stroke="#FAF8FF" stroke-width="2" stroke-linecap="round" stroke-linejoin="round"/>
<path d="M269.063 95.5027H278.574M273.818 95.5027V105.013M283.329 105.013V95.5027L288.084 98.6728L292.839 95.5027V105.013M261.138 100.258C261.138 111.638 270.363 120.864 281.744 120.864C293.124 120.864 302.35 111.638 302.35 100.258C302.35 88.8775 293.124 79.6519 281.744 79.6519C270.363 79.6519 261.138 88.8775 261.138 100.258Z" stroke="#FAF8FF" stroke-width="2" stroke-linecap="round" stroke-linejoin="round"/>
<path d="M148.597 182.859C148.597 178.263 144.871 174.537 140.275 174.537C135.679 174.537 131.954 178.263 131.954 182.859M124.557 203.201L120.832 198.546C119.651 197.07 119.008 195.236 119.009 193.346V183.784C119.009 182.252 120.251 181.01 121.783 181.01C123.315 181.01 124.557 182.252 124.557 183.784V190.95M133.803 202.949V197.402C133.804 195.756 133.317 194.147 132.403 192.779C128.912 189.147 127.822 187.384 125.711 188.793C124.624 189.517 124.246 190.937 124.83 192.105L127.33 196.266M155.994 203.201L159.718 198.546C160.899 197.07 161.542 195.236 161.542 193.346V183.784C161.542 182.252 160.3 181.01 158.768 181.01C157.236 181.01 155.994 182.252 155.994 183.784V190.95M146.748 202.949V197.402C146.746 195.756 147.233 194.147 148.148 192.779C151.639 189.139 152.728 187.381 154.84 188.79C155.927 189.514 156.304 190.934 155.72 192.102L153.22 196.266M134.728 166.216C134.728 169.28 137.211 171.764 140.275 171.764C143.339 171.764 145.823 169.28 145.823 166.216C145.823 163.152 143.339 160.668 140.275 160.668C137.211 160.668 134.728 163.152 134.728 166.216Z" stroke="white" stroke-width="2" stroke-linecap="round" stroke-linejoin="round"/>
<path d="M325.135 188.817L322.862 189.886C320.769 190.876 318.269 189.981 317.279 187.887C316.29 185.794 317.185 183.294 319.278 182.304L321.551 181.228L325.135 188.817ZM325.135 188.817C329.581 186.714 334.549 185.974 339.415 186.689L340.92 186.911L333.033 170.247L332.251 171.551C329.719 175.767 325.996 179.139 321.551 181.243L325.135 188.817ZM325.135 188.817C326.082 190.823 327.811 192.351 329.917 193.045M336.173 160.668C336.925 160.667 337.645 160.966 338.176 161.498L346.562 169.763C347.094 170.293 347.393 171.013 347.393 171.764V198.948C347.393 201.297 345.488 203.201 343.139 203.201L314.661 203.201C312.312 203.201 310.407 201.297 310.407 198.948V164.921C310.407 162.572 312.312 160.668 314.661 160.668H336.173Z" stroke="#FAF8FF" stroke-width="2" stroke-linecap="round" stroke-linejoin="round"/>
<path d="M175.326 257.712C174.246 253.099 175.981 248.283 179.754 245.418C183.527 242.552 188.633 242.175 192.786 244.454C196.939 246.734 199.363 251.243 198.973 255.965M176.17 249.836H178.442C180.275 249.975 181.732 251.432 181.871 253.265V256.458C181.871 256.932 182.292 257.341 182.757 257.71M189.741 243.292C189.741 243.292 187.74 244.867 187.008 245.431C185.774 246.383 185.533 248.149 186.468 249.396L188.19 251.693C188.728 252.41 189.572 252.831 190.468 252.832H192.132C192.888 252.831 193.612 253.131 194.146 253.666L195.461 254.979M202.845 276.758L193.614 277.527M191.923 265.858L185.475 267.99C184.442 268.33 183.318 267.841 182.862 266.853C182.37 265.795 182.805 264.537 183.846 264.009L190.093 260.865C191.169 260.323 192.421 260.251 193.553 260.666L202.799 264.048M184.798 263.53L184.132 262.975C183.044 262.177 181.62 261.998 180.367 262.502L172.092 265.812M166.513 262.646H170.233C171.217 262.604 172.049 263.366 172.094 264.349V276.281C172.049 277.264 171.217 278.026 170.233 277.986H166.513M208.35 277.986H204.63C203.646 278.026 202.814 277.264 202.769 276.281V264.351C202.814 263.368 203.646 262.606 204.63 262.648H208.349M189.37 267.31L194.178 273.91C194.784 274.743 194.839 275.856 194.317 276.745C193.796 277.633 192.797 278.128 191.774 278.004C191.524 279.338 190.278 280.246 188.931 280.075C188.681 281.409 187.435 282.317 186.089 282.148C185.889 283.154 185.114 283.947 184.114 284.171C183.113 284.394 182.074 284.006 181.466 283.18L176.615 277.085C175.898 276.174 174.816 275.624 173.656 275.582L172.092 275.526M186.096 282.145L184.798 280.551M188.939 280.072L187.827 278.596M191.781 278L190.566 276.349" stroke="white" stroke-width="2" stroke-linecap="round" stroke-linejoin="round"/>
<path d="M267.875 279.33H295.614M267.875 279.33C266.025 279.33 266.025 281.18 266.025 281.18V283.029C266.025 284.878 267.875 284.878 267.875 284.878H295.614C297.463 284.878 297.463 283.029 297.463 283.029V281.18C297.463 279.33 295.614 279.33 295.614 279.33M267.875 279.33C267.875 277.288 269.531 275.632 271.573 275.632M295.614 279.33C295.614 277.288 293.958 275.632 291.915 275.632M291.915 275.632H271.573M291.915 275.632C290.699 273.2 290.066 270.518 290.066 267.798V261.762C290.066 253.634 283.869 246.847 275.775 246.108C274.85 244.037 272.902 242.607 270.649 242.345C270.138 242.345 269.724 242.759 269.724 243.27V247.445C267.413 248.99 266.025 251.586 266.025 254.365V262.687C266.025 263.708 266.853 264.536 267.875 264.536H269.724C270.82 264.537 271.784 263.813 272.091 262.761L272.868 260.098C273.06 259.441 273.662 258.989 274.347 258.989C275.879 258.989 277.121 257.747 277.121 256.215C277.118 259.626 276.162 262.969 274.36 265.866C272.533 268.795 271.568 272.18 271.573 275.632M277.985 242.685C287.142 244.432 293.766 252.44 293.764 261.762V271.933" stroke="white" stroke-width="2" stroke-linecap="round" stroke-linejoin="round"/>
<path d="M120.226 84.5863C119.962 84.4414 119.695 84.3388 119.428 84.2783C119.161 84.2138 118.895 84.1945 118.631 84.2206C118.369 84.2446 118.112 84.3161 117.862 84.435C117.611 84.5539 117.37 84.7213 117.141 84.9373C116.764 85.2915 116.513 85.7108 116.387 86.1953C116.262 86.6799 116.286 87.1971 116.46 87.7471C116.634 88.2971 116.98 88.8474 117.497 89.398C118.015 89.9485 118.544 90.3266 119.084 90.5322C119.625 90.7378 120.144 90.7899 120.641 90.6887C121.139 90.5875 121.584 90.352 121.977 89.9822C122.342 89.6398 122.589 89.2605 122.721 88.8445C122.852 88.4245 122.862 87.9987 122.748 87.5671C122.635 87.1315 122.395 86.7192 122.03 86.3301L122.312 86.1579L120.4 87.956L119.758 87.273L122.179 84.9962L122.821 85.6792C123.314 86.2029 123.63 86.7633 123.771 87.3605C123.913 87.9558 123.889 88.5439 123.698 89.1249C123.507 89.7018 123.16 90.2277 122.655 90.7025C122.092 91.2318 121.472 91.5645 120.797 91.7004C120.124 91.8344 119.438 91.7691 118.741 91.5044C118.046 91.2378 117.383 90.7691 116.752 90.0985C116.279 89.5956 115.922 89.0801 115.679 88.5521C115.436 88.02 115.305 87.4955 115.287 86.9784C115.269 86.4613 115.358 85.9677 115.556 85.4974C115.753 85.0272 116.056 84.6004 116.463 84.217C116.799 83.9018 117.159 83.6587 117.544 83.4876C117.929 83.3126 118.322 83.2102 118.723 83.1803C119.124 83.1465 119.521 83.1848 119.913 83.2954C120.304 83.4039 120.673 83.5851 121.021 83.839L120.226 84.5863ZM121.142 79.9817L127.12 86.34L126.388 87.0289L120.41 80.6706L121.142 79.9817ZM130.493 83.3562C130.063 83.761 129.588 84.0137 129.071 84.1143C128.555 84.213 128.033 84.1637 127.505 83.9665C126.978 83.7674 126.484 83.4216 126.02 82.9289C125.553 82.4322 125.236 81.9139 125.067 81.3741C124.901 80.8324 124.883 80.3073 125.014 79.7988C125.146 79.2884 125.427 78.8308 125.858 78.426C126.288 78.0213 126.761 77.7696 127.277 77.6709C127.794 77.5703 128.317 77.6206 128.846 77.8218C129.376 78.021 129.875 78.369 130.342 78.8657C130.805 79.3583 131.119 79.8745 131.283 80.4141C131.449 80.9519 131.466 81.4759 131.334 81.9864C131.204 82.4948 130.924 82.9515 130.493 83.3562ZM129.874 82.698C130.201 82.3906 130.392 82.0538 130.445 81.6876C130.499 81.3215 130.448 80.9541 130.292 80.5856C130.137 80.217 129.909 79.8734 129.609 79.5546C129.31 79.2359 128.98 78.9865 128.62 78.8066C128.259 78.6267 127.894 78.5511 127.523 78.5799C127.152 78.6086 126.804 78.7768 126.477 79.0842C126.15 79.3917 125.96 79.7295 125.909 80.0977C125.857 80.466 125.91 80.8354 126.067 81.206C126.225 81.5766 126.453 81.9213 126.753 82.2401C127.053 82.5588 127.382 82.8071 127.74 82.985C128.098 83.1628 128.462 83.2363 128.831 83.2055C129.199 83.1747 129.547 83.0055 129.874 82.698ZM133.778 80.0803L127.8 73.722L128.533 73.0331L130.74 75.3802L130.802 75.3218C130.778 75.1885 130.753 75.0128 130.728 74.795C130.702 74.5732 130.732 74.3269 130.817 74.0561C130.902 73.7814 131.099 73.4981 131.41 73.2062C131.811 72.8287 132.259 72.5963 132.755 72.5091C133.25 72.4218 133.756 72.4817 134.274 72.6886C134.793 72.8955 135.287 73.2494 135.758 73.7502C136.233 74.2553 136.559 74.7738 136.735 75.3058C136.91 75.8357 136.94 76.3451 136.827 76.834C136.711 77.3209 136.455 77.7511 136.057 78.1247C135.751 78.4127 135.458 78.5926 135.179 78.6644C134.897 78.7341 134.645 78.7504 134.423 78.7134C134.199 78.6744 134.02 78.6367 133.884 78.6004L133.797 78.6821L134.486 79.4148L133.778 80.0803ZM132.257 77.0187C132.595 77.3789 132.947 77.647 133.311 77.823C133.674 77.997 134.029 78.0662 134.378 78.0307C134.725 77.9932 135.045 77.8363 135.339 77.5599C135.646 77.2719 135.825 76.9509 135.878 76.5968C135.932 76.2387 135.881 75.8733 135.725 75.5007C135.57 75.1242 135.333 74.7661 135.014 74.4267C134.698 74.0914 134.363 73.8379 134.006 73.6661C133.65 73.4903 133.294 73.4211 132.939 73.4584C132.585 73.4916 132.252 73.6542 131.942 73.9461C131.643 74.2263 131.464 74.5373 131.403 74.8791C131.341 75.2189 131.384 75.5719 131.533 75.9383C131.681 76.3026 131.922 76.6627 132.257 77.0187ZM140.617 73.8608C140.315 74.1449 139.987 74.3459 139.634 74.4636C139.279 74.5793 138.927 74.5966 138.577 74.5154C138.226 74.4323 137.905 74.2354 137.613 73.925C137.356 73.6518 137.201 73.3797 137.15 73.1088C137.096 72.8358 137.113 72.566 137.202 72.2995C137.29 72.0329 137.421 71.7736 137.593 71.5217C137.766 71.2657 137.95 71.0192 138.144 70.782C138.399 70.4723 138.607 70.2235 138.77 70.0355C138.932 69.8436 139.033 69.6849 139.071 69.5595C139.111 69.4321 139.075 69.3094 138.965 69.1914L138.941 69.1666C138.653 68.8603 138.346 68.701 138.018 68.6889C137.693 68.6749 137.362 68.8265 137.025 69.1437C136.675 69.4725 136.473 69.807 136.418 70.1469C136.363 70.4869 136.377 70.7818 136.46 71.0315L135.531 71.437C135.383 71.0305 135.336 70.6492 135.391 70.2932C135.447 69.9331 135.567 69.6052 135.753 69.3095C135.939 69.0097 136.152 68.747 136.393 68.5213C136.546 68.3773 136.739 68.2305 136.973 68.0809C137.207 67.9273 137.469 67.8189 137.761 67.7555C138.054 67.6902 138.369 67.7119 138.705 67.8208C139.042 67.9296 139.388 68.1734 139.744 68.5522L142.698 71.6941L141.965 72.383L141.358 71.7372L141.321 71.7723C141.368 71.9224 141.39 72.111 141.385 72.338C141.38 72.5649 141.32 72.8103 141.205 73.074C141.091 73.3378 140.895 73.6001 140.617 73.8608ZM140.11 73.0976C140.4 72.8251 140.591 72.5386 140.682 72.2379C140.776 71.9353 140.789 71.6463 140.721 71.3709C140.655 71.0935 140.529 70.8555 140.342 70.6568L139.712 69.9862C139.716 70.0526 139.68 70.151 139.603 70.2813C139.527 70.4076 139.431 70.5463 139.316 70.6975C139.201 70.8447 139.087 70.9869 138.974 71.1241C138.862 71.2573 138.771 71.3661 138.702 71.4504C138.535 71.6542 138.395 71.8619 138.282 72.0735C138.169 72.281 138.113 72.4873 138.115 72.6924C138.117 72.8934 138.205 73.0871 138.38 73.2734C138.62 73.5279 138.895 73.6319 139.206 73.5852C139.517 73.5345 139.818 73.372 140.11 73.0976ZM138.79 63.3896L144.768 69.7479L144.035 70.4368L138.057 64.0784L138.79 63.3896ZM143.46 58.9987L149.438 65.357L148.668 66.0809L142.69 59.7226L143.46 58.9987ZM150.883 63.999L146.399 59.2302L147.107 58.5647L147.807 59.3098L147.87 59.2515C147.73 58.9035 147.704 58.555 147.793 58.206C147.88 57.855 148.079 57.5335 148.39 57.2416C148.704 56.9458 149.033 56.7711 149.377 56.7174C149.72 56.6596 150.07 56.7026 150.428 56.8462L150.477 56.7995C150.368 56.4384 150.367 56.0706 150.475 55.6961C150.581 55.3195 150.805 54.9707 151.147 54.6496C151.573 54.2487 152.047 54.0543 152.569 54.0664C153.09 54.0764 153.613 54.3619 154.141 54.9228L157.142 58.1143L156.409 58.8032L153.408 55.6116C153.077 55.2598 152.745 55.0988 152.41 55.1287C152.076 55.1586 151.778 55.2961 151.517 55.5413C151.182 55.8565 151.017 56.2022 151.024 56.5782C151.028 56.9522 151.176 57.2933 151.466 57.6017L154.385 60.7064L153.64 61.4069L150.569 58.1409C150.314 57.8697 150.021 57.7341 149.689 57.7339C149.355 57.7316 149.05 57.8609 148.773 58.1217C148.582 58.3007 148.452 58.5188 148.382 58.7759C148.313 59.031 148.313 59.2963 148.381 59.5717C148.449 59.8431 148.593 60.0958 148.813 60.3296L151.615 63.3101L150.883 63.999ZM160.163 58.6431L153.998 52.0861L154.706 51.4205L155.418 52.1781L155.505 52.0963C155.481 51.963 155.456 51.7874 155.43 51.5695C155.405 51.3477 155.435 51.1014 155.52 50.8306C155.604 50.5559 155.802 50.2726 156.113 49.9807C156.514 49.6032 156.962 49.3708 157.457 49.2836C157.953 49.1963 158.459 49.2562 158.977 49.4631C159.496 49.67 159.99 50.0239 160.461 50.5247C160.936 51.0298 161.262 51.5483 161.438 52.0803C161.613 52.6102 161.643 53.1196 161.53 53.6085C161.414 54.0954 161.158 54.5256 160.76 54.8992C160.454 55.1872 160.161 55.3671 159.881 55.4389C159.6 55.5086 159.348 55.5249 159.126 55.4879C158.902 55.4489 158.723 55.4112 158.587 55.3749L158.525 55.4332L160.895 57.9542L160.163 58.6431ZM156.96 53.7932C157.298 54.1534 157.65 54.4215 158.014 54.5975C158.377 54.7715 158.732 54.8407 159.081 54.8052C159.428 54.7677 159.748 54.6108 160.042 54.3344C160.348 54.0464 160.528 53.7254 160.581 53.3713C160.635 53.0132 160.583 52.6478 160.428 52.2753C160.273 51.8987 160.036 51.5406 159.717 51.2012C159.401 50.8659 159.066 50.6124 158.709 50.4406C158.353 50.2648 157.997 50.1956 157.642 50.2329C157.288 50.2661 156.955 50.4287 156.644 50.7206C156.346 51.0008 156.167 51.3118 156.106 51.6536C156.043 51.9934 156.087 52.3464 156.236 52.7128C156.384 53.0771 156.625 53.4372 156.96 53.7932ZM165.317 50.6383C165.015 50.9224 164.687 51.1233 164.334 51.241C163.979 51.3567 163.626 51.374 163.277 51.2929C162.926 51.2097 162.604 51.0129 162.313 50.7024C162.056 50.4292 161.901 50.1571 161.849 49.8862C161.795 49.6132 161.813 49.3435 161.901 49.0769C161.99 48.8103 162.121 48.551 162.293 48.2991C162.466 48.0432 162.649 47.7966 162.844 47.5594C163.098 47.2497 163.307 47.0009 163.47 46.813C163.632 46.621 163.733 46.4623 163.771 46.3369C163.811 46.2095 163.775 46.0868 163.664 45.9688L163.641 45.944C163.353 45.6377 163.045 45.4785 162.718 45.4664C162.393 45.4523 162.062 45.6039 161.724 45.9211C161.375 46.25 161.172 46.5844 161.118 46.9244C161.063 47.2643 161.077 47.5592 161.16 47.809L160.231 48.2144C160.083 47.8079 160.036 47.4266 160.091 47.0706C160.146 46.7105 160.267 46.3826 160.453 46.0869C160.639 45.7872 160.852 45.5244 161.092 45.2987C161.246 45.1547 161.439 45.0079 161.673 44.8583C161.907 44.7048 162.169 44.5963 162.461 44.5329C162.754 44.4676 163.069 44.4894 163.405 44.5982C163.741 44.7071 164.088 44.9509 164.444 45.3296L167.398 48.4715L166.665 49.1604L166.058 48.5146L166.021 48.5497C166.068 48.6999 166.09 48.8884 166.085 49.1154C166.08 49.3423 166.02 49.5877 165.905 49.8515C165.791 50.1152 165.595 50.3775 165.317 50.6383ZM164.81 49.875C165.1 49.6026 165.291 49.316 165.382 49.0154C165.476 48.7128 165.489 48.4237 165.421 48.1483C165.355 47.871 165.229 47.6329 165.042 47.4342L164.412 46.7636C164.416 46.8301 164.379 46.9284 164.303 47.0587C164.227 47.185 164.131 47.3237 164.016 47.4749C163.901 47.6221 163.787 47.7643 163.674 47.9015C163.561 48.0347 163.471 48.1435 163.402 48.2278C163.235 48.4316 163.095 48.6394 162.982 48.8509C162.869 49.0585 162.813 49.2648 162.815 49.4698C162.817 49.6708 162.905 49.8645 163.08 50.0508C163.32 50.3054 163.595 50.4093 163.906 50.3626C164.217 50.3119 164.518 50.1494 164.81 49.875ZM170.766 45.4921C170.319 45.9124 169.835 46.1688 169.313 46.2613C168.792 46.3537 168.27 46.2965 167.748 46.0894C167.226 45.8824 166.741 45.5409 166.293 45.0648C165.838 44.5805 165.525 44.0694 165.355 43.5316C165.184 42.9897 165.161 42.4634 165.286 41.9528C165.41 41.4381 165.688 40.9784 166.118 40.5736C166.453 40.2583 166.814 40.0363 167.2 39.9075C167.586 39.7787 167.969 39.7454 168.351 39.8074C168.733 39.8694 169.085 40.03 169.407 40.2891L168.674 40.978C168.414 40.8132 168.109 40.7375 167.759 40.7508C167.409 40.7601 167.072 40.9165 166.749 41.2201C166.464 41.4887 166.283 41.7986 166.208 42.15C166.133 42.4974 166.162 42.8621 166.295 43.244C166.428 43.6219 166.664 43.991 167.002 44.3511C167.349 44.7195 167.708 44.9859 168.081 45.1501C168.456 45.3124 168.821 45.3688 169.176 45.3195C169.534 45.2682 169.857 45.1064 170.147 44.8339C170.337 44.6549 170.479 44.4593 170.572 44.2471C170.665 44.0349 170.707 43.8161 170.698 43.5908C170.689 43.3654 170.625 43.1444 170.507 42.9277L171.24 42.2388C171.463 42.5592 171.599 42.9091 171.648 43.2884C171.696 43.6638 171.65 44.0432 171.507 44.4267C171.365 44.8061 171.118 45.1613 170.766 45.4921ZM171.209 35.904L171.793 36.525L169.322 38.8485L168.738 38.2275L171.209 35.904ZM168.384 36.4078L169.117 35.719L173.39 40.2642C173.585 40.4711 173.76 40.5982 173.918 40.6452C174.075 40.6882 174.218 40.6826 174.346 40.6283C174.475 40.5699 174.593 40.4902 174.7 40.389C174.781 40.3131 174.844 40.2467 174.888 40.1897C174.93 40.1307 174.963 40.0835 174.988 40.0481L175.756 40.5662C175.724 40.6315 175.672 40.7154 175.601 40.8177C175.531 40.922 175.428 41.0384 175.291 41.1669C175.085 41.3615 174.84 41.5077 174.557 41.6055C174.277 41.7014 173.986 41.7195 173.685 41.66C173.385 41.5985 173.105 41.4291 172.844 41.1517L168.384 36.4078Z" fill="#FAF7FF"/>
<path fill-rule="evenodd" clip-rule="evenodd" d="M235 126.669C255.5 126.669 273.402 137.788 283.007 154.323L374.327 101.6C337.179 68.8607 288.409 49 235 49V126.669Z" stroke="white" stroke-width="2" stroke-linecap="round" stroke-linejoin="round"/>
<path fill-rule="evenodd" clip-rule="evenodd" d="M283 153.83C287.722 161.991 290.425 171.467 290.425 181.573C290.425 191.647 287.74 201.094 283.046 209.237L374.366 261.961C384.145 213.42 376.959 161.253 350.255 115L283 153.83Z" stroke="white" stroke-width="2" stroke-linecap="round" stroke-linejoin="round"/>
<path fill-rule="evenodd" clip-rule="evenodd" d="M281.961 210C272.382 226.555 254.494 237.701 234 237.734V343.191C280.927 327.389 322.512 295.083 349.216 248.83L281.961 210Z" stroke="white" stroke-width="2" stroke-linecap="round" stroke-linejoin="round"/>
<path fill-rule="evenodd" clip-rule="evenodd" d="M234.327 236.654C213.827 236.654 195.925 225.536 186.32 209L95 261.724C132.149 294.463 180.918 314.323 234.327 314.323V236.654Z" stroke="white" stroke-width="2" stroke-linecap="round" stroke-linejoin="round"/>
<path d="M287.8 38.5819L290.932 30.4359L293.779 31.5309C294.347 31.749 294.777 32.0271 295.07 32.365C295.365 32.7003 295.539 33.067 295.592 33.4652C295.647 33.8606 295.598 34.2573 295.445 34.655C295.311 35.005 295.137 35.2701 294.925 35.4502C294.715 35.6314 294.484 35.7495 294.232 35.8046C293.982 35.8607 293.728 35.8758 293.47 35.8497L293.44 35.9292C293.683 36.041 293.9 36.2248 294.091 36.4808C294.281 36.7367 294.405 37.0458 294.46 37.4081C294.516 37.7703 294.461 38.1662 294.296 38.5958C294.139 39.0041 293.905 39.3357 293.594 39.5905C293.283 39.8453 292.89 39.9912 292.416 40.0281C291.943 40.0651 291.385 39.9602 290.743 39.7135L287.8 38.5819ZM289.123 38.0861L291.08 38.8385C291.724 39.0862 292.229 39.1374 292.595 38.9922C292.965 38.8453 293.219 38.5928 293.357 38.2349C293.463 37.9591 293.491 37.6775 293.44 37.3901C293.39 37.1001 293.262 36.8349 293.056 36.5944C292.851 36.3513 292.571 36.1614 292.216 36.0248L290.211 35.2541L289.123 38.0861ZM290.542 34.395L292.371 35.0984C292.668 35.2126 292.959 35.2572 293.242 35.2323C293.528 35.2084 293.782 35.1174 294.004 34.9593C294.229 34.8022 294.397 34.5805 294.507 34.2941C294.644 33.9361 294.637 33.5846 294.483 33.2395C294.331 32.8918 293.984 32.6139 293.443 32.4059L291.582 31.6902L290.542 34.395ZM294.957 41.3338L297.306 35.2243L298.213 35.573L297.858 36.4957L297.922 36.5202C298.149 36.2607 298.445 36.0929 298.809 36.0168C299.173 35.9407 299.538 35.973 299.904 36.1137C299.973 36.1402 300.059 36.1746 300.161 36.217C300.264 36.2595 300.34 36.2935 300.391 36.3192L300.024 37.2738C299.996 37.2536 299.927 37.2137 299.819 37.1539C299.715 37.0925 299.601 37.0379 299.476 36.99C299.179 36.8758 298.89 36.8361 298.609 36.8711C298.331 36.9043 298.083 37.0037 297.864 37.1691C297.649 37.333 297.488 37.5527 297.382 37.8285L295.896 41.6947L294.957 41.3338ZM300.867 43.7704C300.48 43.6216 300.157 43.4136 299.898 43.1464C299.639 42.8766 299.471 42.5668 299.392 42.217C299.314 41.8646 299.352 41.4895 299.505 41.0917C299.64 40.7417 299.818 40.4845 300.039 40.3201C300.262 40.153 300.512 40.0515 300.791 40.0155C301.069 39.9796 301.36 39.9847 301.662 40.0307C301.967 40.0752 302.269 40.1334 302.567 40.2053C302.956 40.3003 303.271 40.3802 303.511 40.4451C303.755 40.5083 303.941 40.5298 304.071 40.5095C304.203 40.4904 304.298 40.4052 304.356 40.254L304.368 40.2222C304.519 39.8298 304.529 39.4835 304.398 39.1835C304.269 38.8845 303.989 38.6519 303.557 38.4858C303.109 38.3135 302.72 38.2765 302.39 38.3749C302.059 38.4732 301.8 38.6139 301.611 38.7969L300.842 38.1361C301.144 37.826 301.467 37.6186 301.812 37.5137C302.16 37.4072 302.508 37.3735 302.855 37.4126C303.206 37.4501 303.535 37.5279 303.843 37.6462C304.039 37.7216 304.255 37.8322 304.492 37.9778C304.732 38.1217 304.943 38.3112 305.127 38.5461C305.313 38.7821 305.43 39.0752 305.478 39.4254C305.526 39.7756 305.457 40.1933 305.27 40.6786L303.723 44.7038L302.784 44.3429L303.102 43.5156L303.054 43.4973C302.94 43.6054 302.779 43.7065 302.573 43.8005C302.366 43.8946 302.119 43.9472 301.832 43.9585C301.544 43.9697 301.223 43.907 300.867 43.7704ZM301.335 42.9823C301.706 43.125 302.047 43.1724 302.358 43.1244C302.671 43.0774 302.937 42.9636 303.156 42.7829C303.377 42.6031 303.536 42.386 303.634 42.1314L303.965 41.2723C303.906 41.3047 303.802 41.3148 303.652 41.3026C303.505 41.2888 303.338 41.2628 303.152 41.2247C302.969 41.1849 302.792 41.144 302.619 41.102C302.45 41.0584 302.313 41.0239 302.207 40.9984C301.951 40.9364 301.703 40.9004 301.463 40.8905C301.227 40.8789 301.017 40.9184 300.833 41.009C300.653 41.0979 300.517 41.2617 300.425 41.5004C300.3 41.8265 300.326 42.1195 300.503 42.3793C300.684 42.6375 300.961 42.8385 301.335 42.9823ZM307.788 42.0482L306.375 45.7235L305.436 45.3626L307.785 39.2531L308.692 39.6018L308.325 40.5564L308.404 40.5869C308.667 40.3318 308.98 40.1661 309.344 40.09C309.709 40.0112 310.122 40.0605 310.584 40.2379C310.998 40.3969 311.327 40.6209 311.572 40.9099C311.818 41.1963 311.961 41.5436 312.002 41.9519C312.044 42.3576 311.965 42.8203 311.765 43.3401L310.273 47.2221L309.334 46.8612L310.802 43.0428C310.987 42.5628 311.006 42.141 310.859 41.7774C310.714 41.4111 310.424 41.1443 309.989 40.9771C309.69 40.8619 309.397 40.8239 309.111 40.8631C308.828 40.9033 308.57 41.0221 308.339 41.2193C308.108 41.4166 307.924 41.6929 307.788 42.0482ZM314.246 48.8958C313.737 48.7001 313.337 48.3987 313.046 47.9916C312.756 47.5819 312.592 47.0987 312.553 46.5421C312.516 45.9828 312.621 45.3797 312.87 44.7327C313.117 44.091 313.441 43.5764 313.842 43.189C314.244 42.8017 314.69 42.5548 315.182 42.4485C315.673 42.3422 316.176 42.3879 316.69 42.5857C317.088 42.7386 317.377 42.9257 317.557 43.147C317.74 43.3666 317.861 43.5834 317.918 43.7974C317.98 44.0097 318.024 44.1821 318.053 44.3147L318.132 44.3453L319.288 41.3383L320.227 41.6992L317.095 49.8451L316.188 49.4965L316.549 48.5578L316.438 48.515C316.326 48.5998 316.174 48.7026 315.981 48.8234C315.79 48.9415 315.551 49.0215 315.264 49.0634C314.978 49.1026 314.638 49.0467 314.246 48.8958ZM314.697 48.1015C315.074 48.2463 315.43 48.2705 315.765 48.1742C316.102 48.0753 316.405 47.8768 316.674 47.5787C316.945 47.2781 317.169 46.897 317.347 46.4356C317.522 45.9795 317.609 45.555 317.608 45.1619C317.608 44.7662 317.515 44.423 317.328 44.1321C317.143 43.8387 316.859 43.6185 316.478 43.4717C316.08 43.3188 315.709 43.2934 315.365 43.3957C315.025 43.4963 314.722 43.6948 314.456 43.9912C314.194 44.2859 313.98 44.6481 313.815 45.0777C313.648 45.5125 313.562 45.9331 313.558 46.3394C313.558 46.7441 313.648 47.1016 313.83 47.412C314.016 47.7208 314.305 47.9507 314.697 48.1015ZM318.945 50.5562L321.294 44.4468L322.232 44.8077L319.883 50.9171L318.945 50.5562ZM322.162 43.612C321.979 43.5417 321.846 43.4187 321.761 43.2431C321.679 43.0685 321.672 42.8937 321.739 42.7187C321.806 42.5437 321.929 42.4189 322.107 42.3442C322.287 42.2705 322.469 42.2689 322.652 42.3392C322.835 42.4096 322.967 42.532 323.049 42.7066C323.134 42.8822 323.143 43.0575 323.075 43.2326C323.008 43.4076 322.884 43.5319 322.704 43.6056C322.526 43.6802 322.345 43.6824 322.162 43.612ZM323.954 48.2638L322.541 51.9391L321.603 51.5782L323.952 45.4687L324.858 45.8174L324.491 46.772L324.571 46.8026C324.833 46.5474 325.147 46.3817 325.511 46.3056C325.876 46.2268 326.289 46.2761 326.75 46.4535C327.164 46.6125 327.493 46.8366 327.738 47.1255C327.984 47.4119 328.128 47.7592 328.169 48.1675C328.211 48.5732 328.132 49.0359 327.932 49.5557L326.439 53.4377L325.501 53.0768L326.969 49.2584C327.153 48.7784 327.172 48.3566 327.026 47.993C326.881 47.6267 326.591 47.3599 326.156 47.1927C325.856 47.0775 325.563 47.0395 325.277 47.0787C324.994 47.119 324.737 47.2377 324.506 47.435C324.275 47.6322 324.091 47.9085 323.954 48.2638ZM329.691 57.4637C329.237 57.2893 328.87 57.0811 328.589 56.8391C328.306 56.5996 328.093 56.344 327.948 56.0721C327.804 55.8039 327.71 55.5393 327.664 55.2782L328.614 55.0407C328.656 55.1847 328.714 55.3533 328.789 55.5464C328.863 55.7422 328.992 55.9365 329.177 56.1292C329.363 56.3256 329.64 56.4946 330.009 56.6363C330.502 56.826 330.955 56.8631 331.368 56.7478C331.78 56.6326 332.084 56.3203 332.28 55.8112L332.757 54.5702L332.678 54.5397C332.566 54.6245 332.415 54.7247 332.224 54.8401C332.038 54.954 331.802 55.0292 331.517 55.0657C331.236 55.1006 330.896 55.0416 330.498 54.8887C330.005 54.6991 329.607 54.4121 329.304 54.0279C329.004 53.6447 328.826 53.1865 328.769 52.6534C328.715 52.1212 328.81 51.5369 329.055 50.9005C329.296 50.2748 329.615 49.7721 330.014 49.3927C330.413 49.0106 330.858 48.7678 331.348 48.6641C331.84 48.5578 332.343 48.6035 332.857 48.8013C333.255 48.9542 333.545 49.1418 333.727 49.3641C333.913 49.5848 334.036 49.8026 334.097 50.0176C334.161 50.2309 334.207 50.4039 334.235 50.5364L334.331 50.5731L334.704 49.6026L335.611 49.9513L333.194 56.2358C332.993 56.7608 332.709 57.1418 332.344 57.3789C331.981 57.6196 331.569 57.7399 331.11 57.7398C330.652 57.7433 330.179 57.6513 329.691 57.4637ZM330.95 54.0944C331.326 54.2392 331.678 54.2753 332.004 54.2029C332.33 54.1304 332.623 53.9585 332.882 53.6869C333.142 53.4154 333.358 53.0543 333.532 52.6035C333.701 52.1633 333.784 51.7494 333.781 51.3616C333.778 50.9739 333.683 50.6346 333.497 50.3438C333.31 50.0529 333.026 49.8341 332.644 49.6873C332.246 49.5344 331.876 49.5077 331.534 49.6073C331.194 49.7079 330.892 49.9024 330.629 50.1909C330.368 50.4803 330.159 50.8319 330 51.2455C329.837 51.6698 329.759 52.0705 329.766 52.4476C329.777 52.8231 329.878 53.1542 330.069 53.4407C330.264 53.7256 330.557 53.9435 330.95 54.0944Z" fill="#FAF7FF"/>
<path d="M78.6869 234.05L70.1878 236.033L69.9477 235.004L73.7325 234.121L72.6754 229.589L68.8906 230.472L68.6505 229.443L77.1497 227.46L77.3897 228.49L73.5884 229.376L74.6455 233.908L78.4468 233.021L78.6869 234.05ZM73.1568 222.123L69.3886 223.002L69.1601 222.023L75.5345 220.536L75.7629 221.516L74.6839 221.767L74.6994 221.834C75.058 221.908 75.3875 222.076 75.6879 222.338C75.9856 222.601 76.1905 222.974 76.3028 223.455C76.3958 223.853 76.3912 224.228 76.2892 224.578C76.1844 224.929 75.9756 225.235 75.6628 225.495C75.3472 225.755 74.9183 225.948 74.376 226.075L70.3257 227.02L70.0972 226.04L74.0812 225.111C74.546 225.002 74.8864 224.786 75.1024 224.461C75.3177 224.134 75.3779 223.767 75.2831 223.36C75.2263 223.117 75.1063 222.884 74.923 222.661C74.7392 222.435 74.4986 222.267 74.2013 222.155C73.9033 222.041 73.5551 222.031 73.1568 222.123ZM75.116 218.742L68.7417 220.229L68.521 219.283L69.517 219.051L69.4976 218.968C69.1263 218.914 68.8121 218.762 68.5549 218.509C68.295 218.258 68.1166 217.925 68.0198 217.51C67.9217 217.089 67.9355 216.717 68.0612 216.393C68.1835 216.067 68.3964 215.785 68.6999 215.548L68.6844 215.482C68.3171 215.395 67.9986 215.211 67.7288 214.93C67.4562 214.65 67.2666 214.281 67.1602 213.824C67.0272 213.255 67.0969 212.747 67.3693 212.301C67.6389 211.856 68.1485 211.546 68.8983 211.371L73.1644 210.376L73.3929 211.355L69.1267 212.351C68.6564 212.46 68.3503 212.667 68.2083 212.972C68.0664 213.276 68.0361 213.603 68.1174 213.951C68.2219 214.399 68.4385 214.715 68.7671 214.898C69.0929 215.082 69.4619 215.125 69.8741 215.029L74.0241 214.061L74.2564 215.057L69.8906 216.076C69.5282 216.16 69.2638 216.346 69.0973 216.633C68.928 216.92 68.8867 217.249 68.9731 217.62C69.0325 217.874 69.1558 218.096 69.343 218.286C69.5295 218.473 69.759 218.606 70.0313 218.686C70.3002 218.763 70.591 218.765 70.9036 218.692L74.8876 217.763L75.116 218.742ZM72.4586 206.675C72.5528 207.079 72.5622 207.463 72.4868 207.828C72.4087 208.193 72.247 208.506 72.0017 208.768C71.7536 209.03 71.422 209.209 71.007 209.306C70.6418 209.391 70.329 209.388 70.0686 209.298C69.8054 209.207 69.5807 209.057 69.3946 208.847C69.2084 208.636 69.0496 208.393 68.9182 208.118C68.7834 207.84 68.6621 207.557 68.5543 207.27C68.4142 206.895 68.3036 206.589 68.2225 206.354C68.1381 206.117 68.0511 205.951 67.9617 205.855C67.8716 205.757 67.7477 205.726 67.59 205.763L67.5568 205.77C67.1473 205.866 66.8553 206.052 66.6807 206.329C66.5055 206.603 66.4704 206.966 66.5756 207.417C66.6847 207.884 66.8726 208.227 67.1393 208.445C67.4059 208.663 67.6681 208.799 67.9256 208.852L67.8105 209.859C67.3844 209.784 67.0312 209.633 66.7509 209.406C66.4672 209.178 66.244 208.909 66.0814 208.6C65.9155 208.288 65.795 207.972 65.7202 207.651C65.6724 207.447 65.6425 207.206 65.6303 206.929C65.6147 206.649 65.6526 206.368 65.7439 206.084C65.8346 205.797 66.0114 205.536 66.2742 205.299C66.537 205.063 66.9216 204.886 67.4279 204.768L71.6277 203.788L71.8561 204.767L70.9929 204.969L71.0045 205.019C71.1584 205.053 71.3322 205.129 71.526 205.247C71.7199 205.365 71.9021 205.54 72.0728 205.771C72.2435 206.003 72.3721 206.304 72.4586 206.675ZM71.5439 206.731C71.4536 206.343 71.3013 206.034 71.0872 205.804C70.8725 205.571 70.6289 205.415 70.3566 205.336C70.0836 205.254 69.8143 205.244 69.5487 205.306L68.6524 205.515C68.7118 205.545 68.7788 205.625 68.8532 205.757C68.9242 205.886 68.9962 206.038 69.0692 206.214C69.1389 206.387 69.2047 206.557 69.2669 206.723C69.3256 206.888 69.3742 207.021 69.4125 207.123C69.5051 207.369 69.6145 207.595 69.7409 207.799C69.8638 208 70.0144 208.152 70.1926 208.253C70.3675 208.353 70.5794 208.373 70.8284 208.315C71.1687 208.236 71.3966 208.05 71.5122 207.757C71.6243 207.463 71.6349 207.121 71.5439 206.731ZM67.1477 201.915L70.9822 201.021L71.2107 202L64.8363 203.487L64.6156 202.541L65.6116 202.309L65.5923 202.226C65.2337 202.152 64.9207 201.986 64.6533 201.727C64.3831 201.469 64.1919 201.1 64.0796 200.618C63.9789 200.187 63.9793 199.788 64.0809 199.423C64.1797 199.059 64.3866 198.745 64.7015 198.482C65.0137 198.22 65.4409 198.025 65.9832 197.899L70.0335 196.954L70.262 197.933L66.278 198.863C65.7773 198.98 65.4175 199.201 65.1987 199.526C64.9772 199.852 64.9194 200.242 65.0252 200.695C65.0981 201.008 65.2311 201.272 65.4241 201.486C65.6165 201.698 65.8591 201.844 66.1521 201.925C66.4451 202.005 66.7769 202.002 67.1477 201.915ZM64.664 192.469L65.577 192.256L66.4444 195.974L65.5314 196.187L64.664 192.469ZM60.8927 184.18L61.1328 185.209C60.851 185.339 60.6158 185.507 60.4272 185.711C60.2379 185.913 60.0924 186.139 59.9905 186.39C59.8853 186.64 59.8243 186.903 59.8075 187.181C59.7907 187.459 59.8152 187.74 59.881 188.022C60.0011 188.536 60.2398 188.972 60.5974 189.329C60.9542 189.684 61.4145 189.925 61.9783 190.053C62.5413 190.178 63.1908 190.155 63.9268 189.984C64.6627 189.812 65.2554 189.545 65.7049 189.184C66.1538 188.819 66.4598 188.399 66.6231 187.924C66.7857 187.445 66.807 186.949 66.687 186.434C66.6211 186.152 66.5191 185.89 66.381 185.648C66.2429 185.406 66.0729 185.196 65.871 185.019C65.6658 184.839 65.4337 184.701 65.1747 184.604C64.9123 184.504 64.6274 184.458 64.32 184.466L64.0799 183.437C64.5323 183.413 64.954 183.463 65.3448 183.588C65.7356 183.713 66.0868 183.899 66.3985 184.147C66.7075 184.396 66.9684 184.696 67.1813 185.046C67.3936 185.393 67.5497 185.781 67.6497 186.21C67.8188 186.935 67.7921 187.62 67.5697 188.267C67.3472 188.914 66.9472 189.476 66.3698 189.952C65.7924 190.428 65.0555 190.771 64.1591 190.98C63.2627 191.189 62.4503 191.208 61.7219 191.036C60.9934 190.865 60.3863 190.538 59.9005 190.056C59.4148 189.575 59.0873 188.971 58.9182 188.246C58.8182 187.818 58.7866 187.401 58.8233 186.995C58.8594 186.587 58.9623 186.203 59.132 185.842C59.2989 185.483 59.53 185.16 59.8253 184.876C60.1179 184.591 60.4737 184.36 60.8927 184.18ZM65.8883 178.583C66.0315 179.198 66.0196 179.759 65.8523 180.268C65.6817 180.774 65.3796 181.205 64.9461 181.56C64.5091 181.913 63.9642 182.165 63.3112 182.318C62.6583 182.47 62.0551 182.485 61.5016 182.363C60.9447 182.239 60.4765 181.996 60.097 181.632C59.7142 181.266 59.4556 180.796 59.3214 180.22C59.2439 179.888 59.2228 179.547 59.258 179.198C59.2931 178.848 59.4042 178.512 59.5913 178.188C59.7755 177.865 60.0526 177.577 60.4225 177.325C60.7924 177.072 61.2748 176.877 61.8696 176.738L62.2846 176.641L63.4308 181.555L62.5842 181.752L61.6704 177.834C61.3107 177.918 61.0066 178.065 60.7579 178.275C60.5086 178.482 60.333 178.736 60.2311 179.037C60.1285 179.335 60.1186 179.661 60.2012 180.015C60.2922 180.405 60.4677 180.72 60.7279 180.96C60.9846 181.198 61.2843 181.357 61.6269 181.437C61.9694 181.518 62.3164 181.517 62.6678 181.435L63.2322 181.303C63.7136 181.191 64.1023 181.013 64.3983 180.769C64.691 180.523 64.8896 180.23 64.9942 179.89C65.096 179.551 65.1008 179.184 65.0085 178.789C64.9485 178.531 64.8583 178.307 64.738 178.117C64.6142 177.924 64.4613 177.768 64.2791 177.65C64.0943 177.533 63.8815 177.459 63.6408 177.427L63.6856 176.419C64.0298 176.444 64.3511 176.545 64.6494 176.724C64.9449 176.903 65.2008 177.149 65.4171 177.464C65.6305 177.779 65.7876 178.152 65.8883 178.583ZM60.7293 174.4L64.5638 173.506L64.7923 174.485L58.4179 175.972L58.1972 175.026L59.1932 174.794L59.1739 174.711C58.8153 174.637 58.5023 174.47 58.2349 174.212C57.9647 173.954 57.7735 173.584 57.6612 173.103C57.5605 172.671 57.5609 172.273 57.6625 171.908C57.7613 171.544 57.9682 171.23 58.2831 170.967C58.5953 170.705 59.0225 170.51 59.5648 170.384L63.6151 169.439L63.8436 170.418L59.8596 171.348C59.3589 171.464 58.9991 171.685 58.7803 172.011C58.5588 172.337 58.501 172.726 58.6068 173.18C58.6797 173.493 58.8127 173.756 59.0057 173.971C59.198 174.183 59.4407 174.329 59.7337 174.409C60.0267 174.49 60.3585 174.487 60.7293 174.4ZM56.1767 166.364L57.0067 166.17L57.7772 169.474L56.9472 169.667L56.1767 166.364ZM55.1955 169.061L54.967 168.081L61.0425 166.664C61.3192 166.6 61.5173 166.511 61.637 166.399C61.7532 166.284 61.8199 166.157 61.8373 166.019C61.8512 165.879 61.8414 165.737 61.8078 165.593C61.7827 165.485 61.7565 165.398 61.7293 165.331C61.6993 165.265 61.6753 165.213 61.6574 165.173L62.4907 164.769C62.5311 164.829 62.5776 164.916 62.6302 165.029C62.6857 165.142 62.7347 165.289 62.7773 165.472C62.8418 165.748 62.8456 166.033 62.7886 166.327C62.7309 166.617 62.6007 166.878 62.3979 167.109C62.1944 167.338 61.9073 167.495 61.5366 167.582L55.1955 169.061ZM62.2073 163.404L55.833 164.891L55.6123 163.944L56.5751 163.72L56.5596 163.653C56.2171 163.611 55.9121 163.46 55.6447 163.202C55.3773 162.943 55.199 162.623 55.11 162.241C55.0932 162.169 55.0736 162.079 55.0512 161.971C55.0288 161.862 55.0139 161.779 55.0066 161.723L56.0025 161.491C56.002 161.526 56.0073 161.605 56.0184 161.727C56.0262 161.848 56.0452 161.974 56.0755 162.104C56.1478 162.413 56.2774 162.675 56.4642 162.888C56.6476 163.099 56.8692 163.249 57.129 163.337C57.3853 163.423 57.6574 163.432 57.9451 163.365L61.9789 162.424L62.2073 163.404ZM61.1931 159.056L54.8187 160.543L54.5903 159.563L60.9646 158.076L61.1931 159.056ZM53.6402 160.292C53.6847 160.483 53.6581 160.663 53.5603 160.832C53.4619 160.998 53.3214 161.102 53.1388 161.144C52.9562 161.187 52.7841 161.156 52.6224 161.05C52.4601 160.942 52.3567 160.793 52.3122 160.602C52.2677 160.411 52.2946 160.233 52.393 160.067C52.4908 159.898 52.631 159.793 52.8136 159.75C52.9962 159.707 53.1686 159.74 53.3309 159.848C53.4926 159.953 53.5957 160.101 53.6402 160.292ZM60.0749 153.662C60.2143 154.259 60.1932 154.807 60.0117 155.304C59.8302 155.802 59.5189 156.224 59.0779 156.572C58.6369 156.92 58.0982 157.169 57.4619 157.317C56.8145 157.468 56.2154 157.482 55.6647 157.36C55.1106 157.235 54.6438 156.991 54.2643 156.628C53.8814 156.262 53.6229 155.791 53.4887 155.216C53.3841 154.768 53.3729 154.344 53.455 153.946C53.5371 153.547 53.7007 153.199 53.946 152.899C54.1912 152.6 54.5066 152.376 54.8921 152.228L55.1205 153.207C54.8474 153.35 54.6289 153.576 54.4648 153.885C54.2973 154.193 54.2639 154.562 54.3646 154.994C54.4536 155.376 54.6313 155.687 54.8976 155.928C55.1605 156.168 55.4905 156.325 55.8876 156.402C56.2813 156.477 56.7188 156.458 57.2002 156.345C57.6927 156.23 58.1035 156.053 58.4325 155.813C58.7609 155.57 58.9929 155.282 59.1284 154.95C59.2632 154.616 59.2855 154.254 59.1951 153.867C59.1357 153.613 59.0376 153.392 58.9006 153.205C58.7637 153.018 58.5955 152.872 58.3959 152.767C58.1964 152.662 57.9733 152.606 57.7267 152.599L57.4982 151.62C57.8874 151.588 58.2583 151.645 58.6108 151.794C58.9599 151.94 59.2647 152.171 59.525 152.486C59.7819 152.8 59.9652 153.192 60.0749 153.662Z" fill="#FAF7FF"/>
<path d="M78.9239 209.49L85.4898 205.298L85.4666 205.198L77.7235 204.344L77.4718 203.265L86.6989 204.403L86.9467 205.465L79.1756 210.569L78.9239 209.49ZM85.5433 198.774C85.6376 199.178 85.647 199.562 85.5716 199.927C85.4935 200.292 85.3318 200.606 85.0865 200.867C84.8384 201.129 84.5068 201.309 84.0918 201.405C83.7266 201.491 83.4138 201.488 83.1534 201.397C82.8902 201.306 82.6655 201.156 82.4793 200.946C82.2932 200.735 82.1344 200.492 82.003 200.217C81.8682 199.939 81.7469 199.657 81.6391 199.37C81.4989 198.994 81.3883 198.689 81.3073 198.454C81.2228 198.217 81.1359 198.05 81.0464 197.954C80.9563 197.856 80.8324 197.825 80.6748 197.862L80.6416 197.869C80.2321 197.965 79.9401 198.151 79.7655 198.428C79.5902 198.702 79.5552 199.065 79.6604 199.516C79.7695 199.984 79.9574 200.326 80.224 200.544C80.4907 200.762 80.7529 200.898 81.0104 200.951L80.8953 201.958C80.4692 201.883 80.116 201.732 79.8357 201.506C79.5519 201.277 79.3288 201.008 79.1662 200.699C79.0003 200.388 78.8798 200.072 78.805 199.751C78.7572 199.546 78.7273 199.305 78.7151 199.028C78.6995 198.748 78.7374 198.467 78.8287 198.183C78.9194 197.896 79.0961 197.635 79.359 197.398C79.6218 197.162 80.0064 196.985 80.5127 196.867L84.7124 195.887L84.9409 196.867L84.0777 197.068L84.0893 197.118C84.2431 197.152 84.417 197.228 84.6108 197.346C84.8047 197.464 84.9869 197.639 85.1576 197.871C85.3283 198.102 85.4569 198.403 85.5433 198.774ZM84.6287 198.83C84.5384 198.442 84.3861 198.134 84.172 197.904C83.9572 197.671 83.7137 197.515 83.4414 197.435C83.1684 197.353 82.8991 197.343 82.6335 197.405L81.7371 197.614C81.7966 197.644 81.8636 197.724 81.938 197.856C82.009 197.985 82.081 198.138 82.154 198.313C82.2236 198.486 82.2895 198.656 82.3517 198.823C82.4104 198.987 82.4589 199.12 82.4973 199.222C82.5899 199.469 82.6993 199.694 82.8257 199.898C82.9486 200.1 83.0992 200.251 83.2774 200.353C83.4522 200.452 83.6642 200.472 83.9132 200.414C84.2535 200.335 84.4814 200.149 84.597 199.857C84.7091 199.562 84.7197 199.22 84.6287 198.83ZM75.5679 195.103L84.067 193.12L84.2955 194.1L75.7964 196.082L75.5679 195.103ZM80.1053 187.917L76.3372 188.796L76.1087 187.817L82.483 186.33L82.7115 187.309L81.6325 187.561L81.648 187.627C82.0065 187.701 82.336 187.869 82.6365 188.132C82.9341 188.395 83.1391 188.767 83.2514 189.249C83.3443 189.647 83.3398 190.021 83.2378 190.372C83.133 190.723 82.9242 191.029 82.6114 191.288C82.2958 191.549 81.8668 191.742 81.3246 191.868L77.2742 192.813L77.0458 191.834L81.0297 190.905C81.4945 190.796 81.8349 190.58 82.0509 190.255C82.2663 189.928 82.3265 189.561 82.2316 189.154C82.1749 188.91 82.0548 188.677 81.8716 188.455C81.6877 188.229 81.4472 188.061 81.1498 187.949C80.8519 187.835 80.5037 187.824 80.1053 187.917ZM81.574 181.832C81.7172 182.447 81.7053 183.008 81.538 183.517C81.3674 184.023 81.0653 184.454 80.6318 184.809C80.1948 185.162 79.6498 185.414 78.9969 185.567C78.344 185.719 77.7408 185.734 77.1873 185.612C76.6304 185.489 76.1622 185.245 75.7827 184.881C75.3999 184.515 75.1413 184.045 75.0071 183.469C74.9296 183.137 74.9085 182.797 74.9436 182.447C74.9788 182.098 75.0899 181.761 75.2769 181.437C75.4612 181.114 75.7383 180.826 76.1082 180.574C76.4781 180.321 76.9605 180.126 77.5553 179.987L77.9703 179.89L79.1165 184.804L78.2699 185.001L77.3561 181.084C76.9964 181.167 76.6922 181.314 76.4436 181.524C76.1943 181.731 76.0187 181.985 75.9168 182.286C75.8142 182.584 75.8043 182.91 75.8869 183.264C75.9779 183.654 76.1534 183.969 76.4136 184.209C76.6703 184.447 76.9699 184.606 77.3125 184.686C77.6551 184.767 78.0021 184.766 78.3535 184.684L78.9179 184.552C79.3993 184.44 79.788 184.262 80.084 184.018C80.3766 183.772 80.5753 183.479 80.6799 183.139C80.7817 182.801 80.7865 182.433 80.6942 182.038C80.6342 181.78 80.544 181.556 80.4236 181.366C80.2999 181.173 80.147 181.017 79.9648 180.899C79.7799 180.782 79.5671 180.708 79.3265 180.676L79.3713 179.668C79.7155 179.693 80.0367 179.795 80.3351 179.973C80.6306 180.152 80.8865 180.399 81.1027 180.713C81.3162 181.028 81.4733 181.401 81.574 181.832ZM74.478 174.373L74.9322 175.195C74.7985 175.284 74.675 175.399 74.5619 175.539C74.4453 175.677 74.3627 175.848 74.314 176.052C74.2652 176.256 74.2741 176.501 74.3406 176.785C74.4316 177.176 74.5973 177.48 74.8378 177.698C75.0749 177.914 75.3304 177.99 75.6043 177.926C75.8478 177.869 76.0194 177.736 76.1192 177.526C76.219 177.316 76.272 177.012 76.2783 176.614L76.29 175.613C76.2954 175.011 76.408 174.537 76.6278 174.191C76.8448 173.846 77.176 173.621 77.6214 173.517C77.9866 173.432 78.3376 173.461 78.6744 173.604C79.0105 173.745 79.3052 173.982 79.5583 174.317C79.8114 174.652 79.9957 175.067 80.1112 175.562C80.2629 176.212 80.2473 176.783 80.0645 177.275C79.8817 177.767 79.5324 178.133 79.0166 178.373L78.5674 177.497C78.8898 177.329 79.108 177.101 79.2221 176.815C79.3356 176.526 79.3455 176.181 79.2519 175.78C79.1454 175.323 78.9641 174.984 78.7078 174.76C78.4481 174.535 78.1813 174.454 77.9074 174.518C77.6861 174.57 77.5188 174.691 77.4056 174.88C77.2895 175.071 77.2316 175.335 77.2318 175.673L77.2306 176.794C77.2284 177.41 77.114 177.889 76.8874 178.23C76.6574 178.57 76.3225 178.791 75.8826 178.894C75.5229 178.978 75.1812 178.951 74.8574 178.813C74.533 178.673 74.251 178.446 74.0113 178.131C73.771 177.814 73.5986 177.431 73.494 176.983C73.3469 176.352 73.3697 175.825 73.5624 175.4C73.7546 174.973 74.0597 174.631 74.478 174.373Z" fill="#FAF7FF"/>
<path d="M389.592 150.695L389.847 151.931L383.349 156.297L383.37 156.397L391.064 157.841L391.318 159.076L382.77 160.836L382.571 159.868L389.065 158.531L389.048 158.447L382.004 157.113L381.811 156.179L387.755 152.17L387.738 152.086L381.244 153.424L381.044 152.456L389.592 150.695ZM383.408 164.696C383.325 164.29 383.325 163.905 383.41 163.542C383.498 163.179 383.668 162.87 383.92 162.615C384.174 162.36 384.511 162.189 384.928 162.103C385.295 162.027 385.608 162.038 385.866 162.136C386.127 162.233 386.347 162.389 386.528 162.605C386.709 162.82 386.861 163.067 386.985 163.346C387.113 163.627 387.227 163.912 387.327 164.202C387.457 164.581 387.56 164.889 387.635 165.126C387.713 165.365 387.795 165.534 387.882 165.632C387.97 165.733 388.093 165.767 388.252 165.735L388.285 165.728C388.697 165.643 388.993 165.464 389.175 165.192C389.358 164.922 389.402 164.561 389.309 164.107C389.212 163.637 389.033 163.29 388.772 163.065C388.511 162.84 388.253 162.698 387.997 162.637L388.138 161.633C388.562 161.72 388.911 161.88 389.185 162.114C389.463 162.35 389.679 162.624 389.833 162.938C389.991 163.253 390.103 163.572 390.17 163.895C390.212 164.101 390.236 164.343 390.241 164.62C390.249 164.9 390.204 165.18 390.105 165.462C390.007 165.746 389.824 166.003 389.555 166.232C389.286 166.461 388.897 166.629 388.388 166.733L384.164 167.603L383.961 166.618L384.829 166.439L384.819 166.389C384.666 166.351 384.494 166.271 384.303 166.147C384.113 166.024 383.935 165.845 383.77 165.609C383.606 165.373 383.485 165.069 383.408 164.696ZM384.324 164.664C384.404 165.053 384.548 165.366 384.757 165.602C384.965 165.84 385.205 166.002 385.475 166.089C385.745 166.178 386.014 166.195 386.281 166.14L387.183 165.955C387.124 165.923 387.06 165.841 386.989 165.708C386.921 165.576 386.853 165.422 386.785 165.245C386.719 165.07 386.658 164.898 386.6 164.73C386.546 164.565 386.501 164.43 386.465 164.327C386.379 164.078 386.275 163.85 386.154 163.643C386.037 163.438 385.89 163.283 385.715 163.177C385.542 163.073 385.331 163.047 385.081 163.098C384.738 163.169 384.506 163.349 384.383 163.638C384.263 163.93 384.243 164.272 384.324 164.664ZM384.534 169.401L390.945 168.081L391.141 169.032L390.173 169.232L390.186 169.299C390.528 169.35 390.828 169.509 391.089 169.774C391.35 170.039 391.52 170.364 391.599 170.748C391.613 170.82 391.631 170.911 391.65 171.02C391.67 171.129 391.683 171.212 391.688 171.269L390.687 171.475C390.688 171.44 390.685 171.361 390.677 171.238C390.672 171.117 390.657 170.991 390.63 170.861C390.566 170.549 390.443 170.284 390.262 170.066C390.084 169.851 389.866 169.695 389.609 169.6C389.355 169.508 389.083 169.491 388.794 169.551L384.737 170.386L384.534 169.401ZM387.961 174.211L389.176 173.943L389.217 174.144L392.65 176.361L392.901 177.579L389.264 175.213L389.247 175.13L387.961 174.211ZM385.435 173.774L393.982 172.014L394.185 172.999L385.637 174.759L385.435 173.774ZM386.273 177.848L388.93 174.69L389.759 175.25L386.531 179.1L386.273 177.848ZM387.117 182.619C386.99 182.001 387.016 181.44 387.197 180.936C387.38 180.434 387.694 180.011 388.136 179.668C388.582 179.327 389.134 179.088 389.79 178.953C390.447 178.818 391.05 178.818 391.6 178.954C392.154 179.093 392.616 179.349 392.985 179.722C393.359 180.098 393.605 180.575 393.724 181.154C393.793 181.488 393.805 181.829 393.761 182.177C393.717 182.526 393.597 182.859 393.401 183.178C393.209 183.496 392.924 183.777 392.548 184.019C392.171 184.262 391.684 184.445 391.086 184.568L390.668 184.654L389.651 179.713L390.502 179.537L391.314 183.477C391.675 183.403 391.983 183.264 392.237 183.061C392.492 182.861 392.674 182.611 392.784 182.313C392.894 182.018 392.913 181.692 392.839 181.336C392.758 180.944 392.591 180.624 392.337 180.378C392.087 180.133 391.791 179.967 391.451 179.877C391.111 179.788 390.764 179.779 390.41 179.852L389.843 179.969C389.359 180.069 388.965 180.237 388.663 180.473C388.364 180.711 388.158 180.999 388.045 181.336C387.934 181.672 387.92 182.039 388.002 182.437C388.055 182.695 388.139 182.922 388.254 183.115C388.373 183.311 388.522 183.471 388.701 183.593C388.883 183.715 389.094 183.795 389.333 183.833L389.262 184.84C388.919 184.806 388.6 184.696 388.307 184.51C388.016 184.323 387.767 184.07 387.559 183.75C387.353 183.43 387.206 183.053 387.117 182.619ZM395.091 188.212L394.256 188.384L393.572 185.062L394.406 184.89L395.091 188.212ZM396.142 185.542L396.345 186.527L390.234 187.785C389.956 187.842 389.756 187.926 389.633 188.035C389.514 188.147 389.444 188.271 389.423 188.409C389.405 188.549 389.411 188.691 389.441 188.836C389.464 188.944 389.487 189.032 389.513 189.1C389.541 189.166 389.564 189.22 389.581 189.26L388.737 189.642C388.698 189.581 388.654 189.493 388.604 189.378C388.552 189.264 388.507 189.115 388.469 188.932C388.412 188.653 388.415 188.368 388.48 188.077C388.545 187.788 388.682 187.53 388.891 187.305C389.1 187.082 389.391 186.932 389.764 186.855L396.142 185.542ZM388.985 191.014L395.396 189.694L395.599 190.679L389.188 191.999L388.985 191.014ZM396.567 189.975C396.528 189.783 396.559 189.604 396.661 189.437C396.764 189.274 396.907 189.174 397.091 189.136C397.274 189.098 397.446 189.134 397.605 189.243C397.764 189.355 397.863 189.507 397.903 189.699C397.943 189.891 397.911 190.069 397.808 190.232C397.706 190.398 397.563 190.5 397.38 190.538C397.196 190.576 397.024 190.539 396.865 190.427C396.706 190.317 396.607 190.167 396.567 189.975ZM393.619 193.994L389.762 194.788L389.559 193.803L395.97 192.483L396.166 193.434L395.164 193.641L395.182 193.724C395.538 193.807 395.847 193.982 396.107 194.247C396.371 194.512 396.552 194.886 396.652 195.371C396.741 195.805 396.73 196.203 396.619 196.565C396.511 196.927 396.296 197.235 395.974 197.49C395.655 197.744 395.223 197.927 394.678 198.039L390.604 198.878L390.402 197.893L394.408 197.068C394.912 196.965 395.277 196.753 395.505 196.434C395.735 196.113 395.802 195.725 395.709 195.269C395.644 194.955 395.518 194.688 395.33 194.468C395.144 194.251 394.905 194.099 394.614 194.011C394.323 193.923 393.991 193.917 393.619 193.994ZM388.97 203.789C388.872 203.313 388.849 202.891 388.901 202.524C388.95 202.157 389.05 201.839 389.201 201.57C389.349 201.305 389.521 201.082 389.716 200.903L390.429 201.574C390.33 201.687 390.22 201.827 390.097 201.995C389.973 202.162 389.879 202.376 389.816 202.636C389.751 202.898 389.759 203.223 389.838 203.61C389.945 204.127 390.158 204.529 390.478 204.814C390.798 205.099 391.225 205.187 391.759 205.077L393.061 204.808L393.044 204.725C392.912 204.677 392.746 204.603 392.546 204.505C392.35 204.41 392.159 204.252 391.974 204.031C391.793 203.814 391.66 203.496 391.574 203.078C391.467 202.561 391.494 202.071 391.654 201.609C391.815 201.149 392.104 200.752 392.522 200.416C392.941 200.083 393.484 199.848 394.152 199.711C394.809 199.576 395.404 199.573 395.939 199.704C396.476 199.834 396.921 200.078 397.273 200.434C397.627 200.791 397.86 201.239 397.971 201.778C398.057 202.196 398.056 202.541 397.967 202.815C397.882 203.09 397.765 203.312 397.617 203.479C397.472 203.648 397.351 203.78 397.255 203.875L397.275 203.975L398.294 203.766L398.49 204.717L391.895 206.075C391.344 206.189 390.87 206.156 390.474 205.976C390.075 205.8 389.752 205.519 389.504 205.132C389.254 204.748 389.076 204.301 388.97 203.789ZM392.486 203.03C392.567 203.425 392.727 203.74 392.964 203.976C393.201 204.211 393.504 204.365 393.872 204.437C394.241 204.509 394.662 204.496 395.135 204.399C395.597 204.304 395.99 204.15 396.315 203.938C396.639 203.726 396.874 203.463 397.018 203.149C397.162 202.835 397.193 202.478 397.111 202.077C397.025 201.66 396.847 201.334 396.579 201.099C396.31 200.867 395.984 200.719 395.599 200.653C395.215 200.59 394.806 200.603 394.372 200.692C393.926 200.784 393.547 200.935 393.233 201.144C392.923 201.356 392.699 201.62 392.561 201.935C392.426 202.253 392.401 202.618 392.486 203.03Z" fill="#FAF7FF"/>
<path d="M120.803 295.894L119.849 295.439C119.923 295.138 119.939 294.85 119.898 294.575C119.858 294.301 119.772 294.046 119.639 293.81C119.51 293.572 119.343 293.359 119.136 293.173C118.929 292.986 118.695 292.83 118.433 292.705C117.956 292.478 117.467 292.392 116.965 292.449C116.465 292.506 115.989 292.715 115.537 293.075C115.088 293.437 114.7 293.959 114.375 294.641C114.05 295.323 113.888 295.952 113.89 296.529C113.894 297.107 114.031 297.609 114.301 298.033C114.573 298.459 114.947 298.785 115.424 299.013C115.686 299.138 115.954 299.222 116.229 299.265C116.505 299.308 116.775 299.306 117.039 299.259C117.308 299.211 117.561 299.116 117.798 298.975C118.04 298.832 118.254 298.638 118.44 298.393L119.393 298.848C119.13 299.216 118.827 299.514 118.486 299.742C118.144 299.969 117.779 300.127 117.391 300.216C117.003 300.301 116.607 300.318 116.2 300.266C115.797 300.215 115.396 300.095 114.999 299.905C114.327 299.585 113.808 299.136 113.441 298.558C113.075 297.98 112.886 297.317 112.874 296.569C112.863 295.821 113.056 295.031 113.452 294.2C113.848 293.37 114.341 292.723 114.929 292.261C115.518 291.799 116.152 291.529 116.832 291.45C117.512 291.372 118.187 291.493 118.859 291.813C119.256 292.003 119.602 292.238 119.896 292.52C120.192 292.803 120.428 293.123 120.603 293.481C120.78 293.836 120.888 294.218 120.926 294.626C120.965 295.032 120.924 295.455 120.803 295.894ZM124.303 294.542L120.545 302.419L119.637 301.986L123.395 294.109L124.303 294.542ZM122.208 303.212L125.026 297.305L125.934 297.738L123.115 303.645L122.208 303.212ZM125.957 296.54C125.78 296.456 125.656 296.323 125.586 296.141C125.518 295.961 125.524 295.786 125.605 295.617C125.685 295.447 125.817 295.332 126 295.272C126.186 295.212 126.367 295.225 126.544 295.309C126.721 295.394 126.844 295.526 126.912 295.707C126.983 295.888 126.978 296.064 126.897 296.233C126.816 296.402 126.683 296.517 126.497 296.576C126.314 296.636 126.134 296.625 125.957 296.54ZM127.196 305.743C126.627 305.471 126.196 305.112 125.903 304.663C125.614 304.214 125.466 303.709 125.459 303.149C125.456 302.587 125.599 302.004 125.888 301.399C126.177 300.793 126.541 300.313 126.982 299.956C127.426 299.599 127.909 299.385 128.43 299.316C128.955 299.245 129.484 299.337 130.017 299.591C130.325 299.738 130.604 299.934 130.855 300.18C131.107 300.426 131.3 300.723 131.436 301.071C131.573 301.416 131.625 301.813 131.592 302.259C131.558 302.706 131.41 303.205 131.147 303.756L130.963 304.141L126.409 301.968L126.784 301.184L130.414 302.916C130.573 302.582 130.649 302.253 130.64 301.928C130.634 301.604 130.545 301.308 130.374 301.041C130.205 300.775 129.957 300.563 129.628 300.407C129.267 300.234 128.911 300.175 128.561 300.228C128.216 300.28 127.904 300.415 127.627 300.632C127.351 300.85 127.134 301.121 126.979 301.447L126.73 301.97C126.517 302.416 126.413 302.831 126.419 303.215C126.429 303.597 126.533 303.935 126.733 304.229C126.934 304.52 127.218 304.753 127.585 304.928C127.823 305.041 128.055 305.111 128.279 305.136C128.507 305.16 128.724 305.137 128.929 305.069C129.136 304.997 129.327 304.878 129.502 304.709L130.262 305.374C130.027 305.627 129.748 305.815 129.422 305.936C129.098 306.055 128.745 306.101 128.365 306.074C127.986 306.044 127.596 305.934 127.196 305.743ZM133.685 304.325L131.989 307.879L131.082 307.446L133.9 301.538L134.777 301.956L134.336 302.879L134.413 302.916C134.695 302.682 135.02 302.541 135.389 302.494C135.759 302.444 136.167 302.525 136.613 302.738C137.013 302.929 137.324 303.178 137.546 303.485C137.769 303.79 137.885 304.147 137.894 304.558C137.904 304.965 137.789 305.42 137.549 305.923L135.758 309.677L134.851 309.244L136.612 305.551C136.834 305.087 136.886 304.668 136.768 304.294C136.652 303.918 136.383 303.629 135.963 303.429C135.673 303.29 135.384 303.23 135.096 303.247C134.81 303.265 134.545 303.363 134.299 303.541C134.053 303.72 133.849 303.981 133.685 304.325ZM142.805 305.786L142.438 306.555L139.376 305.095L139.743 304.326L142.805 305.786ZM141.311 303.336L142.218 303.769L139.532 309.4C139.41 309.656 139.355 309.866 139.368 310.03C139.385 310.192 139.442 310.323 139.54 310.423C139.641 310.521 139.758 310.603 139.891 310.666C139.991 310.714 140.075 310.748 140.144 310.768C140.215 310.786 140.271 310.8 140.313 310.811L140.109 311.714C140.036 311.708 139.939 311.69 139.818 311.661C139.695 311.634 139.55 311.58 139.38 311.499C139.124 311.377 138.899 311.202 138.705 310.974C138.514 310.748 138.392 310.483 138.338 310.18C138.287 309.879 138.343 309.556 138.507 309.213L141.311 303.336ZM146.337 310.059L145.934 310.905L142.488 309.261L142.891 308.415L146.337 310.059ZM155.167 312.288L154.213 311.833C154.287 311.532 154.304 311.243 154.262 310.968C154.222 310.695 154.136 310.44 154.004 310.203C153.875 309.965 153.707 309.753 153.5 309.566C153.293 309.38 153.059 309.224 152.797 309.099C152.321 308.872 151.831 308.786 151.329 308.842C150.829 308.9 150.353 309.109 149.901 309.469C149.452 309.831 149.064 310.352 148.739 311.035C148.414 311.717 148.252 312.346 148.254 312.923C148.258 313.501 148.395 314.002 148.665 314.427C148.937 314.853 149.311 315.179 149.788 315.407C150.05 315.531 150.318 315.615 150.594 315.659C150.869 315.702 151.139 315.7 151.404 315.653C151.672 315.605 151.925 315.51 152.163 315.368C152.404 315.225 152.618 315.031 152.804 314.787L153.758 315.242C153.494 315.61 153.191 315.908 152.85 316.135C152.508 316.363 152.143 316.521 151.755 316.609C151.368 316.695 150.971 316.712 150.564 316.66C150.161 316.609 149.76 316.489 149.363 316.299C148.691 315.978 148.172 315.529 147.805 314.952C147.439 314.374 147.25 313.711 147.239 312.963C147.227 312.214 147.42 311.425 147.816 310.594C148.212 309.763 148.705 309.117 149.294 308.655C149.882 308.193 150.516 307.923 151.196 307.844C151.876 307.765 152.551 307.886 153.223 308.207C153.621 308.396 153.966 308.632 154.26 308.914C154.556 309.197 154.792 309.517 154.968 309.875C155.144 310.23 155.252 310.611 155.29 311.02C155.329 311.426 155.288 311.848 155.167 312.288ZM156.42 319.684C155.85 319.413 155.419 319.053 155.126 318.605C154.837 318.155 154.689 317.65 154.683 317.09C154.68 316.528 154.823 315.945 155.112 315.34C155.4 314.735 155.765 314.254 156.206 313.898C156.65 313.54 157.133 313.327 157.654 313.257C158.179 313.186 158.708 313.278 159.241 313.533C159.549 313.68 159.828 313.876 160.079 314.121C160.33 314.367 160.524 314.664 160.66 315.012C160.797 315.358 160.849 315.754 160.815 316.201C160.782 316.647 160.633 317.146 160.37 317.698L160.187 318.082L155.633 315.91L156.007 315.125L159.638 316.857C159.797 316.524 159.872 316.195 159.864 315.87C159.858 315.546 159.769 315.25 159.598 314.982C159.429 314.716 159.18 314.505 158.852 314.348C158.491 314.176 158.135 314.116 157.785 314.17C157.439 314.222 157.128 314.357 156.851 314.574C156.574 314.791 156.358 315.063 156.203 315.388L155.953 315.911C155.741 316.358 155.637 316.773 155.643 317.156C155.652 317.538 155.757 317.876 155.957 318.17C156.158 318.461 156.442 318.694 156.809 318.869C157.047 318.983 157.278 319.052 157.503 319.077C157.73 319.101 157.947 319.079 158.153 319.01C158.36 318.939 158.551 318.819 158.726 318.651L159.485 319.315C159.251 319.568 158.971 319.756 158.646 319.878C158.321 319.997 157.969 320.043 157.589 320.015C157.209 319.986 156.82 319.875 156.42 319.684ZM162.908 318.266L161.213 321.82L160.305 321.387L163.124 315.479L164.001 315.898L163.56 316.821L163.637 316.857C163.919 316.624 164.244 316.483 164.613 316.435C164.983 316.385 165.391 316.467 165.837 316.68C166.237 316.87 166.548 317.119 166.77 317.427C166.993 317.731 167.109 318.089 167.117 318.499C167.128 318.907 167.013 319.362 166.773 319.864L164.982 323.618L164.075 323.185L165.836 319.493C166.057 319.029 166.109 318.61 165.992 318.236C165.876 317.859 165.607 317.571 165.187 317.37C164.897 317.232 164.608 317.171 164.32 317.188C164.034 317.206 163.769 317.304 163.523 317.483C163.277 317.662 163.072 317.923 162.908 318.266ZM172.028 319.727L171.661 320.497L168.6 319.036L168.967 318.267L172.028 319.727ZM170.534 317.277L171.442 317.71L168.756 323.341C168.634 323.597 168.579 323.807 168.592 323.971C168.609 324.133 168.666 324.265 168.763 324.364C168.864 324.463 168.981 324.544 169.115 324.608C169.215 324.655 169.299 324.689 169.368 324.71C169.438 324.727 169.495 324.742 169.537 324.752L169.332 325.656C169.26 325.649 169.163 325.632 169.042 325.602C168.919 325.575 168.773 325.521 168.604 325.44C168.348 325.318 168.123 325.143 167.929 324.915C167.738 324.689 167.616 324.424 167.562 324.122C167.511 323.82 167.567 323.498 167.731 323.154L170.534 317.277ZM170.575 326.286L173.394 320.379L174.271 320.797L173.845 321.689L173.906 321.719C174.154 321.478 174.462 321.334 174.831 321.286C175.199 321.239 175.561 321.299 175.915 321.468C175.981 321.5 176.064 321.541 176.163 321.591C176.262 321.642 176.335 321.681 176.384 321.711L175.944 322.634C175.917 322.612 175.852 322.567 175.749 322.499C175.65 322.429 175.54 322.366 175.419 322.308C175.132 322.171 174.847 322.109 174.564 322.122C174.285 322.134 174.029 322.213 173.798 322.361C173.571 322.508 173.394 322.714 173.267 322.981L171.483 326.719L170.575 326.286ZM174.605 328.209L177.423 322.301L178.331 322.734L175.513 328.642L174.605 328.209ZM178.355 321.537C178.178 321.452 178.054 321.319 177.983 321.138C177.915 320.957 177.921 320.782 178.002 320.613C178.083 320.444 178.215 320.329 178.398 320.268C178.584 320.209 178.765 320.222 178.942 320.306C179.119 320.39 179.241 320.523 179.309 320.703C179.38 320.885 179.375 321.06 179.294 321.23C179.214 321.399 179.081 321.513 178.895 321.573C178.712 321.633 178.532 321.621 178.355 321.537ZM179.517 330.703C178.963 330.439 178.548 330.081 178.273 329.628C177.998 329.176 177.862 328.669 177.866 328.107C177.869 327.545 178.012 326.97 178.293 326.38C178.579 325.78 178.942 325.303 179.381 324.949C179.825 324.594 180.307 324.382 180.828 324.312C181.353 324.242 181.882 324.334 182.415 324.588C182.83 324.786 183.168 325.042 183.428 325.355C183.688 325.667 183.858 326.013 183.939 326.392C184.02 326.77 183.998 327.156 183.873 327.55L182.965 327.117C183.024 326.814 182.984 326.503 182.845 326.181C182.709 325.858 182.441 325.602 182.041 325.411C181.688 325.242 181.333 325.186 180.978 325.244C180.628 325.3 180.298 325.459 179.99 325.721C179.687 325.982 179.428 326.336 179.215 326.782C178.998 327.239 178.88 327.67 178.862 328.077C178.847 328.485 178.926 328.846 179.101 329.159C179.278 329.474 179.547 329.716 179.906 329.888C180.142 330 180.375 330.061 180.607 330.071C180.838 330.081 181.057 330.04 181.264 329.95C181.471 329.86 181.654 329.721 181.813 329.532L182.72 329.965C182.503 330.289 182.226 330.543 181.89 330.726C181.558 330.907 181.187 331.001 180.778 331.007C180.373 331.012 179.953 330.911 179.517 330.703Z" fill="#FAF7FF"/>
<path d="M119.977 317.229L118.977 316.752L125.627 310.255L126.612 310.724L125.747 319.981L124.747 319.504L125.556 311.75L125.495 311.721L119.977 317.229ZM121.815 314.328L125.845 316.251L125.442 317.097L121.411 315.174L121.815 314.328ZM125.794 322.723L129.669 314.6L130.546 315.018L130.098 315.957L130.206 316.008C130.321 315.937 130.476 315.851 130.67 315.748C130.867 315.644 131.108 315.582 131.391 315.563C131.677 315.543 132.013 315.624 132.398 315.808C132.895 316.045 133.274 316.378 133.535 316.808C133.796 317.238 133.924 317.732 133.919 318.29C133.914 318.848 133.764 319.437 133.468 320.057C133.169 320.683 132.804 321.174 132.372 321.532C131.942 321.887 131.478 322.1 130.981 322.171C130.486 322.24 129.992 322.157 129.499 321.923C129.12 321.741 128.846 321.534 128.678 321.299C128.511 321.062 128.404 320.833 128.358 320.613C128.313 320.39 128.283 320.209 128.268 320.07L128.191 320.033L126.701 323.156L125.794 322.723ZM129.152 317.98C128.939 318.426 128.817 318.851 128.785 319.254C128.754 319.655 128.819 320.011 128.978 320.323C129.139 320.633 129.401 320.875 129.765 321.048C130.145 321.229 130.509 321.281 130.858 321.202C131.212 321.121 131.533 320.941 131.824 320.661C132.119 320.38 132.367 320.029 132.567 319.609C132.765 319.194 132.88 318.789 132.911 318.394C132.945 317.998 132.881 317.642 132.718 317.325C132.558 317.006 132.286 316.755 131.901 316.572C131.532 316.395 131.177 316.341 130.836 316.408C130.497 316.473 130.184 316.641 129.897 316.914C129.611 317.183 129.362 317.539 129.152 317.98ZM132.394 325.872L136.269 317.749L137.146 318.167L136.698 319.105L136.806 319.157C136.921 319.086 137.076 318.999 137.27 318.897C137.467 318.793 137.708 318.731 137.991 318.712C138.277 318.691 138.613 318.773 138.998 318.956C139.495 319.193 139.874 319.527 140.135 319.957C140.396 320.386 140.524 320.88 140.519 321.438C140.514 321.996 140.364 322.585 140.068 323.206C139.769 323.831 139.404 324.323 138.972 324.68C138.542 325.035 138.078 325.249 137.581 325.32C137.086 325.389 136.592 325.306 136.099 325.071C135.72 324.89 135.446 324.682 135.278 324.448C135.111 324.211 135.004 323.982 134.958 323.762C134.913 323.539 134.883 323.358 134.868 323.218L134.791 323.182L133.301 326.305L132.394 325.872ZM135.752 321.128C135.539 321.574 135.417 321.999 135.385 322.402C135.354 322.803 135.418 323.16 135.578 323.472C135.739 323.782 136.001 324.023 136.365 324.197C136.745 324.378 137.109 324.429 137.458 324.35C137.811 324.27 138.133 324.09 138.424 323.81C138.719 323.529 138.967 323.178 139.167 322.757C139.365 322.342 139.48 321.937 139.511 321.543C139.545 321.147 139.481 320.79 139.317 320.473C139.158 320.155 138.886 319.904 138.501 319.72C138.132 319.544 137.777 319.49 137.436 319.557C137.097 319.622 136.784 319.79 136.496 320.062C136.21 320.332 135.962 320.687 135.752 321.128ZM140.05 326.805L142.869 320.897L143.746 321.316L143.32 322.208L143.381 322.237C143.629 321.996 143.937 321.852 144.306 321.805C144.674 321.757 145.036 321.818 145.39 321.987C145.456 322.018 145.539 322.059 145.638 322.11C145.737 322.16 145.81 322.2 145.859 322.229L145.419 323.152C145.392 323.13 145.327 323.085 145.224 323.017C145.125 322.948 145.015 322.884 144.894 322.827C144.607 322.69 144.322 322.628 144.039 322.641C143.76 322.652 143.504 322.732 143.273 322.88C143.046 323.026 142.869 323.233 142.742 323.499L140.958 327.238L140.05 326.805ZM146.242 329.909C145.708 329.655 145.301 329.305 145.019 328.859C144.741 328.414 144.597 327.91 144.589 327.346C144.584 326.783 144.727 326.197 145.018 325.586C145.311 324.971 145.679 324.487 146.121 324.134C146.566 323.783 147.049 323.576 147.57 323.513C148.094 323.451 148.622 323.547 149.155 323.802C149.689 324.056 150.095 324.406 150.374 324.85C150.655 325.296 150.798 325.802 150.802 326.367C150.809 326.934 150.665 327.525 150.372 328.14C150.081 328.751 149.713 329.23 149.27 329.579C148.829 329.929 148.347 330.135 147.823 330.197C147.302 330.26 146.775 330.164 146.242 329.909ZM146.631 329.094C147.036 329.287 147.419 329.343 147.779 329.26C148.14 329.177 148.464 328.996 148.751 328.717C149.038 328.439 149.276 328.102 149.464 327.707C149.652 327.313 149.765 326.915 149.802 326.514C149.839 326.113 149.777 325.745 149.616 325.41C149.455 325.075 149.171 324.81 148.766 324.617C148.361 324.424 147.978 324.37 147.616 324.456C147.254 324.541 146.929 324.724 146.641 325.005C146.352 325.287 146.114 325.624 145.926 326.019C145.737 326.414 145.625 326.811 145.589 327.209C145.553 327.608 145.617 327.973 145.779 328.306C145.942 328.638 146.225 328.901 146.631 329.094ZM152.035 332.692C151.661 332.514 151.355 332.281 151.117 331.994C150.88 331.705 150.736 331.383 150.685 331.028C150.636 330.671 150.702 330.3 150.886 329.915C151.047 329.577 151.245 329.334 151.479 329.188C151.713 329.039 151.971 328.957 152.252 328.943C152.532 328.929 152.821 328.956 153.119 329.026C153.42 329.094 153.716 329.176 154.007 329.271C154.388 329.396 154.696 329.5 154.93 329.583C155.168 329.665 155.352 329.701 155.483 329.691C155.616 329.682 155.718 329.605 155.787 329.459L155.802 329.428C155.983 329.048 156.02 328.704 155.913 328.395C155.808 328.087 155.546 327.833 155.128 327.633C154.695 327.427 154.31 327.36 153.973 327.432C153.637 327.504 153.367 327.624 153.164 327.792L152.45 327.073C152.775 326.788 153.113 326.606 153.465 326.528C153.821 326.449 154.17 326.443 154.513 326.509C154.86 326.574 155.182 326.677 155.479 326.819C155.669 326.909 155.876 327.036 156.1 327.2C156.328 327.362 156.524 327.568 156.689 327.816C156.856 328.066 156.95 328.367 156.971 328.72C156.991 329.073 156.89 329.484 156.666 329.953L154.809 333.846L153.901 333.412L154.283 332.612L154.237 332.59C154.114 332.689 153.946 332.778 153.733 332.855C153.519 332.933 153.269 332.966 152.982 332.955C152.694 332.944 152.379 332.856 152.035 332.692ZM152.563 331.943C152.922 332.114 153.258 332.188 153.571 332.164C153.887 332.142 154.161 332.049 154.393 331.886C154.628 331.724 154.804 331.52 154.921 331.274L155.318 330.443C155.257 330.471 155.152 330.473 155.003 330.449C154.858 330.424 154.694 330.385 154.511 330.332C154.332 330.279 154.159 330.224 153.99 330.169C153.825 330.112 153.691 330.067 153.587 330.033C153.336 329.951 153.092 329.896 152.854 329.868C152.62 329.838 152.407 329.861 152.217 329.937C152.03 330.011 151.882 330.164 151.772 330.395C151.621 330.71 151.624 331.004 151.78 331.277C151.94 331.548 152.201 331.77 152.563 331.943ZM158.807 335.904C158.253 335.64 157.839 335.281 157.563 334.829C157.288 334.377 157.152 333.87 157.156 333.308C157.159 332.746 157.302 332.17 157.583 331.581C157.869 330.981 158.232 330.504 158.672 330.15C159.115 329.795 159.597 329.583 160.118 329.513C160.643 329.443 161.172 329.534 161.705 329.789C162.121 329.987 162.458 330.243 162.718 330.555C162.978 330.868 163.148 331.214 163.229 331.592C163.31 331.971 163.288 332.357 163.163 332.751L162.255 332.318C162.314 332.015 162.274 331.703 162.135 331.382C161.999 331.059 161.732 330.802 161.332 330.612C160.978 330.443 160.623 330.387 160.269 330.444C159.918 330.501 159.588 330.66 159.281 330.922C158.977 331.183 158.718 331.537 158.506 331.983C158.288 332.439 158.17 332.871 158.152 333.278C158.137 333.686 158.217 334.047 158.391 334.36C158.569 334.674 158.837 334.917 159.196 335.088C159.432 335.201 159.665 335.262 159.897 335.272C160.128 335.282 160.347 335.241 160.554 335.151C160.761 335.061 160.944 334.921 161.103 334.733L162.011 335.166C161.793 335.49 161.516 335.744 161.18 335.927C160.848 336.108 160.478 336.202 160.069 336.208C159.663 336.213 159.243 336.112 158.807 335.904ZM165.119 334.401L163.423 337.955L162.516 337.522L166.273 329.645L167.181 330.078L165.801 332.97L165.878 333.007C166.162 332.768 166.485 332.625 166.848 332.577C167.214 332.529 167.63 332.615 168.094 332.837C168.496 333.029 168.81 333.278 169.036 333.583C169.262 333.887 169.38 334.244 169.389 334.654C169.402 335.063 169.287 335.521 169.045 336.029L167.254 339.783L166.346 339.35L168.108 335.657C168.332 335.188 168.383 334.767 168.262 334.394C168.144 334.021 167.871 333.731 167.443 333.527C167.146 333.385 166.849 333.321 166.553 333.334C166.26 333.348 165.988 333.444 165.737 333.62C165.489 333.797 165.283 334.058 165.119 334.401Z" fill="#FAF7FF"/>
<path d="M308.962 322.952C308.651 322.648 308.279 322.517 307.846 322.56C307.413 322.602 306.991 322.789 306.58 323.121C306.279 323.364 306.055 323.625 305.908 323.904C305.764 324.181 305.697 324.456 305.708 324.728C305.722 324.998 305.816 325.241 305.99 325.458C306.137 325.64 306.306 325.761 306.497 325.822C306.689 325.878 306.888 325.895 307.095 325.87C307.3 325.844 307.5 325.798 307.695 325.732C307.888 325.663 308.061 325.595 308.214 325.526L309.053 325.156C309.268 325.06 309.516 324.965 309.799 324.872C310.084 324.777 310.383 324.72 310.696 324.701C311.01 324.678 311.32 324.724 311.627 324.837C311.934 324.951 312.216 325.167 312.473 325.485C312.769 325.853 312.94 326.262 312.987 326.713C313.036 327.163 312.947 327.623 312.721 328.094C312.497 328.563 312.124 329.008 311.602 329.429C311.116 329.821 310.631 330.082 310.148 330.213C309.668 330.341 309.213 330.347 308.783 330.23C308.355 330.112 307.978 329.877 307.652 329.527L308.501 328.842C308.73 329.081 308.988 329.224 309.273 329.27C309.56 329.313 309.852 329.282 310.15 329.176C310.449 329.067 310.733 328.903 311.003 328.686C311.317 328.433 311.558 328.154 311.726 327.851C311.892 327.546 311.974 327.242 311.971 326.941C311.968 326.638 311.866 326.362 311.666 326.114C311.484 325.889 311.273 325.756 311.033 325.716C310.793 325.676 310.534 325.695 310.257 325.773C309.98 325.85 309.695 325.952 309.403 326.078L308.375 326.513C307.721 326.789 307.125 326.91 306.587 326.877C306.049 326.843 305.596 326.598 305.227 326.14C304.92 325.76 304.755 325.345 304.732 324.896C304.71 324.443 304.81 323.997 305.033 323.559C305.256 323.116 305.585 322.72 306.018 322.37C306.456 322.017 306.908 321.782 307.376 321.664C307.841 321.544 308.282 321.539 308.699 321.648C309.117 321.755 309.47 321.976 309.758 322.31L308.962 322.952ZM313.313 319.443L313.848 320.106L311.208 322.235L310.673 321.572L313.313 319.443ZM310.458 319.731L311.24 319.099L315.157 323.955C315.335 324.176 315.501 324.316 315.655 324.375C315.808 324.43 315.951 324.435 316.083 324.391C316.216 324.342 316.339 324.272 316.454 324.179C316.541 324.11 316.608 324.048 316.656 323.995C316.702 323.939 316.739 323.894 316.767 323.861L317.494 324.436C317.457 324.499 317.399 324.578 317.32 324.675C317.242 324.774 317.131 324.882 316.985 325C316.764 325.178 316.509 325.305 316.22 325.381C315.933 325.456 315.641 325.452 315.345 325.369C315.051 325.285 314.785 325.095 314.546 324.799L310.458 319.731ZM318.6 323.587L314.49 318.493L315.247 317.883L315.867 318.652L315.92 318.609C315.81 318.283 315.813 317.942 315.93 317.589C316.046 317.236 316.257 316.936 316.562 316.69C316.62 316.644 316.692 316.587 316.78 316.52C316.869 316.452 316.936 316.403 316.984 316.372L317.626 317.168C317.594 317.183 317.526 317.222 317.42 317.285C317.314 317.345 317.21 317.416 317.106 317.5C316.858 317.7 316.679 317.93 316.568 318.191C316.458 318.448 316.419 318.712 316.453 318.985C316.487 319.253 316.597 319.502 316.782 319.732L319.382 322.956L318.6 323.587ZM323.671 319.695C323.348 319.955 323.006 320.13 322.644 320.221C322.281 320.309 321.929 320.3 321.587 320.193C321.243 320.083 320.937 319.863 320.67 319.531C320.434 319.239 320.301 318.956 320.27 318.682C320.237 318.406 320.274 318.138 320.383 317.879C320.491 317.62 320.641 317.371 320.832 317.133C321.024 316.891 321.226 316.659 321.437 316.437C321.715 316.148 321.942 315.915 322.118 315.74C322.295 315.561 322.407 315.411 322.454 315.288C322.504 315.164 322.478 315.039 322.376 314.913L322.355 314.887C322.091 314.56 321.796 314.377 321.471 314.341C321.148 314.302 320.806 314.428 320.445 314.719C320.072 315.02 319.845 315.338 319.764 315.673C319.684 316.008 319.676 316.303 319.739 316.558L318.782 316.892C318.665 316.476 318.648 316.092 318.73 315.741C318.812 315.386 318.957 315.069 319.165 314.788C319.374 314.503 319.606 314.257 319.862 314.05C320.026 313.918 320.23 313.787 320.474 313.655C320.719 313.52 320.989 313.431 321.285 313.39C321.582 313.347 321.895 313.393 322.222 313.527C322.549 313.661 322.875 313.93 323.202 314.335L325.909 317.692L325.126 318.323L324.57 317.633L324.53 317.665C324.566 317.819 324.573 318.008 324.551 318.234C324.529 318.46 324.451 318.7 324.316 318.955C324.182 319.209 323.967 319.456 323.671 319.695ZM323.223 318.895C323.532 318.645 323.744 318.374 323.858 318.081C323.975 317.787 324.01 317.499 323.963 317.22C323.918 316.938 323.81 316.691 323.639 316.479L323.061 315.762C323.06 315.829 323.017 315.924 322.93 316.048C322.845 316.169 322.739 316.3 322.613 316.442C322.487 316.58 322.362 316.713 322.24 316.841C322.117 316.965 322.018 317.067 321.943 317.146C321.761 317.336 321.606 317.533 321.477 317.735C321.349 317.934 321.278 318.135 321.264 318.34C321.25 318.54 321.324 318.74 321.485 318.939C321.704 319.211 321.97 319.336 322.284 319.313C322.598 319.286 322.911 319.147 323.223 318.895ZM325.444 309.657L325.979 310.321L323.339 312.45L322.804 311.787L325.444 309.657ZM322.589 309.946L323.372 309.314L327.289 314.17C327.467 314.391 327.633 314.531 327.786 314.59C327.94 314.645 328.083 314.65 328.215 314.606C328.347 314.557 328.471 314.487 328.586 314.394C328.672 314.324 328.739 314.263 328.788 314.209C328.834 314.154 328.871 314.109 328.899 314.076L329.625 314.651C329.588 314.713 329.53 314.793 329.451 314.89C329.374 314.988 329.262 315.097 329.116 315.214C328.895 315.393 328.64 315.52 328.351 315.596C328.064 315.671 327.773 315.667 327.477 315.584C327.183 315.5 326.916 315.31 326.677 315.014L322.589 309.946ZM332.898 312.23C332.407 312.626 331.896 312.859 331.366 312.929C330.835 312.996 330.316 312.911 329.808 312.675C329.3 312.434 328.836 312.053 328.415 311.532C327.994 311.01 327.718 310.473 327.587 309.922C327.457 309.366 327.473 308.839 327.636 308.339C327.799 307.835 328.11 307.398 328.57 307.027C328.835 306.813 329.133 306.646 329.463 306.525C329.793 306.405 330.145 306.359 330.517 306.387C330.888 306.412 331.268 306.537 331.656 306.76C332.045 306.984 332.43 307.333 332.814 307.808L333.081 308.14L329.154 311.308L328.608 310.631L331.74 308.105C331.508 307.818 331.243 307.608 330.946 307.475C330.652 307.34 330.347 307.293 330.031 307.332C329.718 307.369 329.42 307.502 329.137 307.73C328.825 307.981 328.618 308.276 328.515 308.615C328.413 308.949 328.4 309.288 328.476 309.632C328.552 309.975 328.704 310.288 328.93 310.569L329.294 311.02C329.605 311.404 329.934 311.677 330.282 311.838C330.631 311.994 330.981 312.046 331.333 311.992C331.682 311.937 332.015 311.782 332.331 311.527C332.537 311.361 332.699 311.182 332.819 310.991C332.939 310.796 333.012 310.59 333.039 310.375C333.064 310.158 333.039 309.934 332.963 309.703L333.89 309.305C334.017 309.626 334.065 309.96 334.034 310.306C334.002 310.65 333.891 310.987 333.702 311.319C333.511 311.648 333.243 311.951 332.898 312.23ZM339.796 309.82C339.418 310.125 339.053 310.338 338.703 310.46C338.354 310.584 338.026 310.641 337.718 310.63C337.414 310.62 337.138 310.569 336.889 310.478L337.159 309.537C337.305 309.573 337.48 309.607 337.685 309.639C337.891 309.673 338.124 309.659 338.383 309.596C338.647 309.533 338.932 309.378 339.239 309.13C339.651 308.798 339.91 308.425 340.017 308.01C340.124 307.595 340.006 307.175 339.664 306.751L338.829 305.716L338.763 305.769C338.78 305.909 338.791 306.09 338.796 306.312C338.8 306.531 338.747 306.773 338.636 307.038C338.525 307.299 338.304 307.563 337.972 307.83C337.561 308.162 337.113 308.363 336.629 308.432C336.147 308.5 335.661 308.424 335.171 308.206C334.684 307.986 334.226 307.611 333.798 307.08C333.377 306.558 333.102 306.03 332.974 305.495C332.843 304.958 332.856 304.451 333.012 303.975C333.166 303.496 333.458 303.084 333.887 302.738C334.219 302.471 334.526 302.314 334.81 302.267C335.094 302.217 335.345 302.219 335.561 302.275C335.778 302.326 335.95 302.373 336.079 302.415L336.159 302.351L335.506 301.542L336.262 300.932L340.489 306.172C340.843 306.61 341.03 307.046 341.052 307.481C341.078 307.916 340.976 308.333 340.746 308.73C340.519 309.128 340.203 309.491 339.796 309.82ZM337.511 307.041C337.825 306.788 338.033 306.502 338.134 306.184C338.234 305.865 338.232 305.526 338.127 305.165C338.023 304.804 337.819 304.436 337.515 304.06C337.219 303.693 336.903 303.414 336.566 303.222C336.229 303.03 335.887 302.942 335.542 302.958C335.197 302.973 334.865 303.11 334.547 303.366C334.215 303.634 334.007 303.941 333.921 304.287C333.838 304.632 333.855 304.99 333.973 305.363C334.093 305.733 334.292 306.091 334.57 306.436C334.855 306.789 335.163 307.058 335.493 307.241C335.823 307.419 336.16 307.498 336.504 307.476C336.848 307.45 337.184 307.305 337.511 307.041ZM343.85 306.375C343.717 306.482 343.59 306.566 343.468 306.628C343.348 306.692 343.26 306.73 343.204 306.742L342.847 305.891C343.076 305.787 343.259 305.669 343.394 305.538C343.529 305.407 343.606 305.237 343.624 305.029C343.646 304.821 343.601 304.55 343.487 304.214L343.312 303.699L337.297 300.097L338.146 299.412L342.827 302.338L342.88 302.295L341.012 297.101L341.861 296.416L344.407 303.998C344.522 304.339 344.577 304.654 344.573 304.943C344.57 305.233 344.507 305.497 344.385 305.735C344.265 305.97 344.086 306.184 343.85 306.375Z" fill="#FAF7FF"/>
<path fill-rule="evenodd" clip-rule="evenodd" d="M186.255 154.191C195.834 137.636 213.722 126.49 234.216 126.457V21C187.289 36.8022 145.704 69.1078 119 115.361L186.255 154.191Z" stroke="white" stroke-width="2" stroke-linecap="round" stroke-linejoin="round"/>
<path fill-rule="evenodd" clip-rule="evenodd" d="M187.534 210.131C182.812 201.97 180.11 192.494 180.11 182.387C180.11 172.313 182.795 162.867 187.488 154.724L96.1682 102C86.3898 150.541 93.5748 202.707 120.279 248.961L187.534 210.131Z" stroke="white" stroke-width="2" stroke-linecap="round" stroke-linejoin="round"/>
</svg>
