<svg width="60" height="57" viewBox="0 0 60 57" fill="none" xmlns="http://www.w3.org/2000/svg">
<path d="M4.09091 0C3.72926 3.59757e-05 3.38244 0.142986 3.12671 0.397411C2.87099 0.651836 2.72731 0.996899 2.72727 1.35671V6.59012C2.67249 6.77136 2.07386 8.751 1.41957 10.9729C1.07778 12.1336 0.735477 13.3115 0.47674 14.2349C0.347372 14.6965 0.239093 15.0931 0.159801 15.4034C0.120156 15.5586 0.0871771 15.6895 0.0612571 15.8089C0.0353378 15.9282 0 15.9253 0 16.2805C0 17.6765 0.552043 18.9431 1.43288 19.9081C1.38532 20.0508 1.36192 20.2004 1.36364 20.3507V55.6251C1.36367 55.9849 1.50735 56.33 1.76308 56.5844C2.0188 56.8389 2.36562 56.9818 2.72727 56.9818H10.68C10.8273 57.0061 10.9776 57.0061 11.1248 56.9818H29.771C29.9182 57.0061 30.0685 57.0061 30.2157 56.9818H48.8619C49.0091 57.0061 49.1594 57.0061 49.3066 56.9818H57.2727C57.6344 56.9818 57.9812 56.8389 58.2369 56.5844C58.4926 56.33 58.6363 55.9849 58.6364 55.6251V20.3507C58.6381 20.2004 58.6147 20.0508 58.5671 19.9081C59.448 18.9431 60 17.6765 60 16.2805C60 15.9253 59.9647 15.9282 59.9387 15.8089C59.9128 15.6895 59.8799 15.5586 59.8402 15.4034C59.7609 15.0931 59.6526 14.6965 59.5233 14.2349C59.2645 13.3115 58.9222 12.1336 58.5804 10.9729C57.9261 8.751 57.3275 6.77136 57.2727 6.59012V1.35671C57.2727 0.996899 57.129 0.651836 56.8733 0.397411C56.6176 0.142986 56.2707 3.59757e-05 55.9091 0H4.09091ZM5.45455 2.71342H54.5455V5.42684H5.45455V2.71342ZM5.10831 8.14026H54.8917C55.095 8.81515 55.4291 9.91603 55.965 11.7361C56.3051 12.8908 56.6446 14.0621 56.8972 14.9636C57.0235 15.4143 57.1283 15.7978 57.1982 16.0712C57.2257 16.1789 57.2417 16.2522 57.2567 16.3176C57.2337 17.8117 56.0534 18.9939 54.5455 18.9939C53.0227 18.9939 51.8182 17.7955 51.8182 16.2805C51.8199 15.9278 51.6835 15.5882 51.4379 15.3339C51.1923 15.0795 50.8567 14.9303 50.5024 14.9179C50.1481 14.9055 49.8028 15.0308 49.5398 15.2674C49.2768 15.504 49.1168 15.8331 49.0936 16.1851C49.0916 16.2169 49.0907 16.2487 49.0909 16.2805C49.0909 17.7955 47.8864 18.9939 46.3636 18.9939C44.8409 18.9939 43.6364 17.7955 43.6364 16.2805C43.641 15.9602 43.5316 15.6485 43.3274 15.4008C43.2989 15.3666 43.2686 15.3339 43.2369 15.3027C43.1404 15.2065 43.03 15.1252 42.9093 15.0616H42.9066C42.8668 15.0402 42.8259 15.0207 42.7841 15.0033C42.6572 14.9528 42.5235 14.9215 42.3873 14.9106C42.3421 14.9066 42.2968 14.9048 42.2514 14.9053C42.16 14.9068 42.069 14.9174 41.9798 14.9371C41.9357 14.9464 41.8922 14.9579 41.8493 14.9715C41.8068 14.9854 41.765 15.0013 41.7241 15.0192L41.7214 15.0219C41.6548 15.0512 41.5907 15.0857 41.5297 15.1252C41.5144 15.1346 41.4993 15.1443 41.4844 15.1543C41.469 15.1664 41.4539 15.1788 41.4391 15.1914C41.3822 15.234 41.3288 15.281 41.2793 15.3319C41.2172 15.3978 41.1619 15.4697 41.1142 15.5465C41.0901 15.5843 41.0678 15.6232 41.0476 15.6631V15.6658C41.0278 15.7055 41.0101 15.7462 40.9943 15.7877V15.7903C40.9789 15.832 40.9656 15.8745 40.9544 15.9175V15.9201C40.9425 15.9629 40.9327 16.0063 40.9251 16.05V16.0526C40.9185 16.0966 40.914 16.1408 40.9118 16.1851V16.1878C40.9098 16.2187 40.9089 16.2496 40.9091 16.2805C40.9091 17.7955 39.7045 18.9939 38.1818 18.9939C36.6591 18.9939 35.4545 17.7955 35.4545 16.2805C35.455 16.2354 35.4533 16.1903 35.4492 16.1454C35.4254 15.8733 35.3195 15.6147 35.1456 15.4034V15.4008C35.0295 15.2609 34.8864 15.1455 34.7248 15.0616C34.6849 15.0402 34.6441 15.0207 34.6023 15.0033C34.4754 14.9528 34.3416 14.9215 34.2054 14.9106C34.115 14.9025 34.024 14.9033 33.9338 14.9132C33.8881 14.9189 33.8428 14.9268 33.7979 14.9371C33.7102 14.956 33.6246 14.9835 33.5423 15.0192L33.5396 15.0219C33.473 15.0512 33.4089 15.0857 33.3478 15.1252C33.3167 15.146 33.2865 15.1681 33.2573 15.1914C33.2004 15.234 33.147 15.281 33.0975 15.3319C33.0041 15.4302 32.926 15.5418 32.8658 15.6631V15.6658C32.846 15.7055 32.8282 15.7462 32.8125 15.7877V15.7903C32.7971 15.832 32.7838 15.8745 32.7725 15.9175V15.9201C32.7607 15.9629 32.7509 16.0063 32.7433 16.05V16.0526C32.7366 16.0966 32.7322 16.1408 32.7299 16.1851V16.1878C32.728 16.2187 32.7271 16.2496 32.7273 16.2805C32.7273 17.7955 31.5227 18.9939 30 18.9939C28.4773 18.9939 27.2727 17.7955 27.2727 16.2805C27.2732 16.2354 27.2714 16.1903 27.2674 16.1454C27.2436 15.8733 27.1377 15.6147 26.9638 15.4034V15.4008C26.8477 15.2609 26.7046 15.1455 26.543 15.0616C26.5031 15.0402 26.4622 15.0207 26.4205 15.0033C26.2087 14.9181 25.9789 14.8871 25.752 14.9132C25.7063 14.9189 25.661 14.9268 25.6161 14.9371C25.5284 14.956 25.4427 14.9835 25.3604 15.0192L25.3578 15.0219C25.2912 15.0512 25.2271 15.0857 25.166 15.1252C25.1507 15.1346 25.1356 15.1443 25.1207 15.1543C25.1054 15.1664 25.0903 15.1788 25.0755 15.1914C24.9106 15.317 24.7767 15.4783 24.6839 15.6631V15.6658C24.6642 15.7055 24.6464 15.7462 24.6307 15.7877V15.7903C24.6153 15.832 24.6019 15.8745 24.5907 15.9175V15.9201C24.5788 15.9629 24.5691 16.0063 24.5614 16.05V16.0526C24.5548 16.0966 24.5504 16.1408 24.5481 16.1851V16.1878C24.5462 16.2187 24.5453 16.2496 24.5455 16.2805C24.5455 17.7955 23.3409 18.9939 21.8182 18.9939C20.2955 18.9939 19.0909 17.7955 19.0909 16.2805C19.0914 16.2354 19.0896 16.1903 19.0856 16.1454C19.0617 15.8733 18.9559 15.6147 18.782 15.4034V15.4008C18.6659 15.2609 18.5228 15.1455 18.3612 15.0616C18.3213 15.0402 18.2804 15.0207 18.2386 15.0033C18.0269 14.9181 17.797 14.8871 17.5701 14.9132C17.5245 14.9189 17.4791 14.9268 17.4343 14.9371C17.3466 14.956 17.2609 14.9835 17.1786 15.0192L17.176 15.0219C17.1094 15.0512 17.0452 15.0857 16.9842 15.1252C16.9689 15.1346 16.9538 15.1443 16.9389 15.1543C16.9236 15.1664 16.9085 15.1788 16.8936 15.1914C16.7288 15.317 16.5948 15.4783 16.5021 15.6631V15.6658C16.4824 15.7055 16.4646 15.7462 16.4489 15.7877V15.7903C16.4335 15.832 16.4201 15.8745 16.4089 15.9175V15.9201C16.397 15.9629 16.3872 16.0063 16.3796 16.05V16.0526C16.373 16.0966 16.3686 16.1408 16.3663 16.1851V16.1878C16.3643 16.2187 16.3635 16.2496 16.3636 16.2805C16.3636 17.7955 15.1591 18.9939 13.6364 18.9939C12.1136 18.9939 10.9091 17.7955 10.9091 16.2805C10.9096 16.2354 10.9078 16.1903 10.9038 16.1454C10.8799 15.8733 10.7741 15.6147 10.6001 15.4034V15.4008C10.4841 15.2609 10.341 15.1455 10.1793 15.0616C10.1395 15.0402 10.0986 15.0207 10.0568 15.0033C9.84508 14.9181 9.61522 14.8871 9.38832 14.9132C9.34266 14.9189 9.29733 14.9268 9.25249 14.9371C9.16475 14.956 9.07911 14.9835 8.9968 15.0192L8.99414 15.0219C8.92755 15.0512 8.86342 15.0857 8.80238 15.1252C8.7871 15.1346 8.772 15.1443 8.7571 15.1543C8.74174 15.1664 8.72665 15.1788 8.71183 15.1914C8.54694 15.317 8.41303 15.4783 8.32031 15.6631V15.6658C8.30057 15.7055 8.28279 15.7462 8.26705 15.7877V15.7903C8.25164 15.832 8.23831 15.8745 8.2271 15.9175V15.9201C8.2152 15.9629 8.20542 16.0063 8.1978 16.05V16.0526C8.19118 16.0966 8.18674 16.1408 8.18448 16.1851V16.1878C8.18253 16.2187 8.18164 16.2496 8.18182 16.2805C8.18182 17.7955 6.97727 18.9939 5.45455 18.9939C3.94659 18.9939 2.76632 17.8117 2.74325 16.3176C2.75829 16.2522 2.77432 16.1789 2.80185 16.0712C2.8717 15.7978 2.97649 15.4143 3.10281 14.9636C3.35543 14.0621 3.69495 12.8908 4.03498 11.7361C4.57093 9.91603 4.90502 8.81515 5.10831 8.14026ZM9.54545 19.8233C10.5479 20.9663 12.0039 21.7074 13.6364 21.7074C15.2688 21.7074 16.7248 20.9663 17.7273 19.8233C18.7298 20.9663 20.1857 21.7074 21.8182 21.7074C23.4507 21.7074 24.9066 20.9663 25.9091 19.8233C26.9116 20.9663 28.3675 21.7074 30 21.7074C31.6325 21.7074 33.0884 20.9663 34.0909 19.8233C35.0934 20.9663 36.5493 21.7074 38.1818 21.7074C39.8143 21.7074 41.2702 20.9663 42.2727 19.8233C43.2752 20.9663 44.7312 21.7074 46.3636 21.7074C47.9961 21.7074 49.4521 20.9663 50.4545 19.8233C51.457 20.9663 52.913 21.7074 54.5455 21.7074C55.0186 21.7074 55.4703 21.6257 55.9091 21.5113V54.2684H50.4545V27.1342C50.4545 26.7744 50.3108 26.4293 50.0551 26.1749C49.7994 25.9205 49.4526 25.7775 49.0909 25.7775H30.2104C30.1338 25.7648 30.0563 25.7586 29.9787 25.7589C29.9126 25.7604 29.8468 25.7666 29.7816 25.7775H10.9091C10.5474 25.7775 10.2006 25.9205 9.94489 26.1749C9.68917 26.4293 9.54549 26.7744 9.54545 27.1342V54.2684H4.09091V21.5113C4.52969 21.6257 4.98137 21.7074 5.45455 21.7074C7.08702 21.7074 8.54297 20.9663 9.54545 19.8233ZM12.2727 28.4909H28.6364V54.2684H12.2727V28.4909ZM31.3636 28.4909H47.7273V54.2684H31.3636V28.4909ZM24.5455 39.3446C24.1838 39.3446 23.8369 39.4875 23.5812 39.742C23.3255 39.9964 23.1818 40.3415 23.1818 40.7013C23.1818 41.0611 23.3255 41.4062 23.5812 41.6607C23.8369 41.9151 24.1838 42.058 24.5455 42.058C24.9071 42.058 25.254 41.9151 25.5097 41.6607C25.7654 41.4062 25.9091 41.0611 25.9091 40.7013C25.9091 40.3415 25.7654 39.9964 25.5097 39.742C25.254 39.4875 24.9071 39.3446 24.5455 39.3446ZM35.4545 39.3446C35.0929 39.3446 34.746 39.4875 34.4903 39.742C34.2346 39.9964 34.0909 40.3415 34.0909 40.7013C34.0909 41.0611 34.2346 41.4062 34.4903 41.6607C34.746 41.9151 35.0929 42.058 35.4545 42.058C35.8162 42.058 36.1631 41.9151 36.4188 41.6607C36.6745 41.4062 36.8182 41.0611 36.8182 40.7013C36.8182 40.3415 36.6745 39.9964 36.4188 39.742C36.1631 39.4875 35.8162 39.3446 35.4545 39.3446Z" fill="#f9f871"/>
</svg>
