<svg width="56" height="57" viewBox="0 0 56 57" fill="none" xmlns="http://www.w3.org/2000/svg">
<path d="M18.311 45.0733C17.728 44.4902 16.7851 44.4902 16.202 45.0733C15.619 45.6563 15.619 46.5992 16.202 47.1822L17.8892 48.8694H11.0412C6.58751 48.8694 2.9774 45.2469 2.9774 40.8056V35.8061C2.9774 34.9873 2.30749 34.3174 1.4887 34.3174C0.669916 34.3174 0 34.9873 0 35.8061V40.8056C0 46.8969 4.94993 51.8468 11.0412 51.8468H17.8892L16.202 53.534C15.619 54.1171 15.619 55.06 16.202 55.643C16.4874 55.9284 16.872 56.0772 17.2565 56.0772C17.6411 56.0772 18.0133 55.9284 18.311 55.643L22.5414 51.4126C23.1245 50.8296 23.1245 49.8867 22.5414 49.3036L18.311 45.0733Z" fill="#f9f871"/>
<path d="M26.0522 0.00292969H1.60027C0.781488 0.00292969 0.111572 0.672845 0.111572 1.49163V25.9436C0.111572 26.7623 0.781488 27.4323 1.60027 27.4323H26.0522C26.871 27.4323 27.5409 26.7623 27.5409 25.9436V1.49163C27.5409 0.672845 26.8834 0.00292969 26.0522 0.00292969ZM24.5635 24.4549H3.08898V2.98033H24.5635V24.4549Z" fill="#f9f871"/>
<path d="M44.9464 4.2335H38.0983L39.7855 2.5463C40.3686 1.96323 40.3686 1.02038 39.7855 0.437306C39.2025 -0.145769 38.2596 -0.145769 37.6765 0.437306L33.4585 4.6677C32.8755 5.25077 32.8755 6.19362 33.4585 6.77669L37.6889 11.0071C37.9743 11.2924 38.3589 11.4413 38.7434 11.4413C39.128 11.4413 39.5002 11.2924 39.7979 11.0071C40.381 10.424 40.381 9.48117 39.7979 8.89809L38.1107 7.2109H44.9588C49.4125 7.2109 53.0226 10.8334 53.0226 15.2747V20.2743C53.0226 21.093 53.6925 21.763 54.5113 21.763C55.3301 21.763 56 21.093 56 20.2743V15.2747C56 9.18343 51.0376 4.2335 44.9464 4.2335Z" fill="#f9f871"/>
<path d="M54.3996 53.1001C54.0026 53.1001 53.618 53.2614 53.3451 53.5343C53.0722 53.8072 52.9109 54.1918 52.9109 54.5888C52.9109 54.9734 53.0722 55.3704 53.3451 55.6433C53.618 55.9162 54.0026 56.0775 54.3996 56.0775C54.7966 56.0775 55.1812 55.9162 55.4541 55.6433C55.727 55.3704 55.8883 54.9858 55.8883 54.5888C55.8883 54.1918 55.727 53.8072 55.4541 53.5343C55.1688 53.2614 54.7842 53.1001 54.3996 53.1001Z" fill="#f9f871"/>
<path d="M48.2836 53.1001C47.4648 53.1001 46.7949 53.77 46.7949 54.5888C46.7949 55.4076 47.4648 56.0775 48.2836 56.0775C49.1024 56.0775 49.7723 55.4076 49.7723 54.5888C49.7723 53.77 49.1024 53.1001 48.2836 53.1001Z" fill="#f9f871"/>
<path d="M36.0514 53.1001C35.2327 53.1001 34.5627 53.77 34.5627 54.5888C34.5627 55.4076 35.2327 56.0775 36.0514 56.0775C36.8702 56.0775 37.5401 55.4076 37.5401 54.5888C37.5401 53.77 36.8826 53.1001 36.0514 53.1001Z" fill="#f9f871"/>
<path d="M42.1674 53.1001C41.3486 53.1001 40.6787 53.77 40.6787 54.5888C40.6787 55.4076 41.3486 56.0775 42.1674 56.0775C42.9862 56.0775 43.6561 55.4076 43.6561 54.5888C43.6561 53.77 42.9862 53.1001 42.1674 53.1001Z" fill="#f9f871"/>
<path d="M29.9477 53.1001C29.5507 53.1001 29.1661 53.2614 28.8932 53.5343C28.6203 53.8072 28.459 54.1918 28.459 54.5888C28.459 54.9734 28.6203 55.3704 28.8932 55.6433C29.1661 55.9162 29.5507 56.0775 29.9477 56.0775C30.3323 56.0775 30.7293 55.9162 31.0022 55.6433C31.2751 55.3704 31.4364 54.9858 31.4364 54.5888C31.4364 54.1918 31.2751 53.8072 31.0022 53.5343C30.7293 53.2614 30.3321 53.1001 29.9477 53.1001Z" fill="#f9f871"/>
<path d="M29.9477 46.9839C29.1289 46.9839 28.459 47.6538 28.459 48.4726C28.459 49.2914 29.1289 49.9613 29.9477 49.9613C30.7665 49.9613 31.4364 49.2914 31.4364 48.4726C31.4364 47.6538 30.7663 46.9839 29.9477 46.9839Z" fill="#f9f871"/>
<path d="M29.9477 40.8682C29.1289 40.8682 28.459 41.5381 28.459 42.3569C28.459 43.1757 29.1289 43.8456 29.9477 43.8456C30.7665 43.8456 31.4364 43.1757 31.4364 42.3569C31.4364 41.5381 30.7663 40.8682 29.9477 40.8682Z" fill="#f9f871"/>
<path d="M29.9477 34.752C29.1289 34.752 28.459 35.4219 28.459 36.2407C28.459 37.0594 29.1289 37.7294 29.9477 37.7294C30.7665 37.7294 31.4364 37.0594 31.4364 36.2407C31.4364 35.4219 30.7663 34.752 29.9477 34.752Z" fill="#f9f871"/>
<path d="M29.9477 28.6484C29.5507 28.6484 29.1661 28.8097 28.8932 29.0826C28.6203 29.3556 28.459 29.7402 28.459 30.1371C28.459 30.5341 28.6203 30.9187 28.8932 31.1916C29.1661 31.4646 29.5507 31.6258 29.9477 31.6258C30.3323 31.6258 30.7293 31.4646 31.0022 31.1916C31.2751 30.9187 31.4364 30.5341 31.4364 30.1371C31.4364 29.7526 31.2751 29.3556 31.0022 29.0826C30.7167 28.7973 30.3321 28.6484 29.9477 28.6484Z" fill="#f9f871"/>
<path d="M48.2836 28.6484C47.4648 28.6484 46.7949 29.3184 46.7949 30.1371C46.7949 30.9559 47.4648 31.6258 48.2836 31.6258C49.1024 31.6258 49.7723 30.9559 49.7723 30.1371C49.7723 29.3184 49.1024 28.6484 48.2836 28.6484Z" fill="#f9f871"/>
<path d="M42.1674 28.6484C41.3486 28.6484 40.6787 29.3184 40.6787 30.1371C40.6787 30.9559 41.3486 31.6258 42.1674 31.6258C42.9862 31.6258 43.6561 30.9559 43.6561 30.1371C43.6561 29.3184 42.9862 28.6484 42.1674 28.6484Z" fill="#f9f871"/>
<path d="M36.0514 28.6484C35.2327 28.6484 34.5627 29.3184 34.5627 30.1371C34.5627 30.9559 35.2327 31.6258 36.0514 31.6258C36.8702 31.6258 37.5401 30.9559 37.5401 30.1371C37.5401 29.3184 36.8826 28.6484 36.0514 28.6484Z" fill="#f9f871"/>
<path d="M54.3996 28.6484C54.0026 28.6484 53.618 28.8097 53.3451 29.0826C53.0722 29.3556 52.9109 29.7402 52.9109 30.1371C52.9109 30.5341 53.0722 30.9187 53.3451 31.1916C53.618 31.4646 54.0026 31.6258 54.3996 31.6258C54.7966 31.6258 55.1812 31.4646 55.4541 31.1916C55.727 30.9187 55.8883 30.5341 55.8883 30.1371C55.8883 29.7526 55.727 29.3556 55.4541 29.0826C55.1688 28.8097 54.7842 28.6484 54.3996 28.6484Z" fill="#f9f871"/>
<path d="M54.3996 34.752C53.5808 34.752 52.9109 35.4219 52.9109 36.2407C52.9109 37.0594 53.5808 37.7294 54.3996 37.7294C55.2184 37.7294 55.8883 37.0594 55.8883 36.2407C55.8883 35.4219 55.2184 34.752 54.3996 34.752Z" fill="#f9f871"/>
<path d="M54.3996 46.9839C53.5808 46.9839 52.9109 47.6538 52.9109 48.4726C52.9109 49.2914 53.5808 49.9613 54.3996 49.9613C55.2184 49.9613 55.8883 49.2914 55.8883 48.4726C55.8883 47.6538 55.2184 46.9839 54.3996 46.9839Z" fill="#f9f871"/>
<path d="M54.3996 40.8682C53.5808 40.8682 52.9109 41.5381 52.9109 42.3569C52.9109 43.1757 53.5808 43.8456 54.3996 43.8456C55.2184 43.8456 55.8883 43.1757 55.8883 42.3569C55.8883 41.5381 55.2184 40.8682 54.3996 40.8682Z" fill="#f9f871"/>
</svg>
