<svg width="74" height="70" viewBox="0 0 74 70" fill="none" xmlns="http://www.w3.org/2000/svg">
<path d="M47.4196 52.1904H26.3797C24.7027 52.1904 23.3433 53.3615 23.3433 54.8061V54.8184C23.3433 56.263 24.7027 57.434 26.3797 57.434H47.4196C49.0966 57.434 50.4561 56.263 50.4561 54.8184V54.8061C50.4561 53.3615 49.0966 52.1904 47.4196 52.1904Z" stroke="#f9f871" stroke-width="3"/>
<path d="M45.7584 57.4214H28.0413C26.3643 57.4214 25.0049 58.5924 25.0049 60.037V60.0493C25.0049 61.4939 26.3643 62.665 28.0413 62.665H45.7584C47.4354 62.665 48.7948 61.4939 48.7948 60.0493V60.037C48.7948 58.5924 47.4354 57.4214 45.7584 57.4214Z" stroke="#f9f871" stroke-width="3"/>
<path d="M41.5189 62.665V63.7014C41.5691 64.2495 41.4871 64.8005 41.2781 65.3199C41.069 65.8393 40.7375 66.3159 40.3044 66.7196C39.8712 67.1233 39.3458 67.4455 38.7611 67.6658C38.1764 67.8861 37.5452 67.9999 36.907 67.9999C36.2688 67.9999 35.6375 67.8861 35.0529 67.6658C34.4682 67.4455 33.9427 67.1233 33.5096 66.7196C33.0764 66.3159 32.7449 65.8393 32.5359 65.3199C32.3269 64.8005 32.2449 64.2495 32.2951 63.7014V62.665" stroke="#f9f871" stroke-width="3"/>
<path d="M61.6851 26.5152L73 24.9854" stroke="#f9f871" stroke-width="5"/>
<path d="M58.1475 17.5454L65.2229 13.9551" stroke="#f9f871" stroke-width="5"/>
<path d="M50.9287 10.9079L55.6838 2" stroke="#f9f871" stroke-width="5"/>
<path d="M37.4081 9.62476L37.3508 2.55518" stroke="#f9f871" stroke-width="5"/>
<path d="M24.2887 11.3521L20.4646 2" stroke="#f9f871" stroke-width="5"/>
<path d="M15.2656 17.447L8.06128 14.0664" stroke="#f9f871" stroke-width="5"/>
<path d="M12.1001 26.0093L1 24.3931" stroke="#f9f871" stroke-width="5"/>
<path d="M27.053 52.5358C27.053 46.1695 22.484 40.8272 20.0206 36.8791C18.6519 34.6868 17.9335 32.237 17.9294 29.7478C17.9294 21.3704 26.8238 14.5723 36.5489 14.5723" stroke="#f9f871" stroke-width="5"/>
<path d="M46.0448 52.5358C46.0448 46.1695 50.6137 40.8272 53.0772 36.8791C54.4458 34.6868 55.1642 32.237 55.1683 29.7478C55.1683 21.3704 46.2739 14.5723 36.5488 14.5723" stroke="#f9f871" stroke-width="5"/>
<path d="M24.6897 28.8223C24.7612 27.6077 25.11 26.4171 25.716 25.3187C26.3221 24.2203 27.1736 23.2355 28.2218 22.4208C29.27 21.6061 30.4944 20.9773 31.8249 20.5706C33.1555 20.1638 34.566 19.9869 35.976 20.0501" stroke="#f9f871" stroke-width="5"/>
</svg>
