<svg width="55" height="81" viewBox="0 0 55 81" fill="none" xmlns="http://www.w3.org/2000/svg">
<path d="M27.6349 0.706183C26.6962 -0.114524 25.3311 -0.141974 24.4594 0.649159L24.4554 0.653092C15.9344 8.44866 12.342 19.3762 13.6755 33.6665L1.40329 45.9387C0.638733 46.7032 0.551969 47.899 1.12015 48.8318L1.13004 48.8469L9.62532 62.5878C9.72032 62.7458 9.84781 62.9074 9.9979 63.0575C10.9568 64.0164 12.4695 64.0603 13.3744 63.1554L19.26 57.2698C19.5498 58.0946 19.8174 58.9026 20.1293 59.7443C20.2467 60.0715 20.4477 60.3931 20.7243 60.6697C21.2037 61.1492 21.8223 61.4006 22.4328 61.4183L33.2375 61.7317C33.848 61.7494 34.4516 61.5321 34.9027 61.081C35.1729 60.8108 35.3578 60.4869 35.4611 60.139L35.4561 60.1524C35.6973 59.3497 35.925 58.5467 36.1581 57.7437L42.6274 64.2131C43.5877 65.1707 45.0976 65.2145 46.0039 64.311C46.0039 64.311 46.0065 64.3084 46.0092 64.3058C46.1482 64.1668 46.2638 64.0122 46.3589 63.8477L46.3512 63.8609L54.0629 50.5901C54.587 49.6769 54.4293 48.4727 53.6204 47.6638L40.6275 34.6709C41.3943 22.0245 38.4396 10.1837 27.6349 0.706183ZM11.9995 57.5787L6.15895 48.1318L14.5022 39.7886C15.1591 43.5038 16.1314 47.5264 17.3492 51.5035L17.5349 52.0433L11.9995 57.5787ZM48.9841 49.5845L43.6823 58.7082L37.5743 52.6002C38.7487 48.1015 39.5279 44.1675 40.0957 40.2004L40.0243 40.6247L48.9841 49.5845ZM31.362 56.9029L24.0041 56.6922C15.5021 32.9961 16.2375 16.2924 26.2592 5.75641C39.0125 18.3497 37.665 35.3987 31.3593 56.9028L31.362 56.9029ZM22.1522 16.8512C19.7982 19.2052 19.9122 23.1354 22.4068 25.6301C24.9014 28.1247 28.8316 28.2387 31.1856 25.8847C33.5396 23.5307 33.4256 19.6005 30.931 17.1059C28.4351 14.6153 24.5076 14.5013 22.1522 16.8512ZM27.7112 22.4103C27.1683 22.9532 26.2607 22.9269 25.6853 22.3515C25.11 21.7762 25.0836 20.8686 25.6266 20.3256C26.1695 19.7827 27.0771 19.809 27.6524 20.3844C28.2278 20.9598 28.2541 21.8674 27.7112 22.4103ZM22.8859 66.1545L22.2511 66.7838C21.5652 67.4697 21.4238 68.5033 21.8123 69.3823L21.8195 69.3973L26.1455 78.969C26.2625 79.2355 26.4402 79.4998 26.6737 79.7332C27.6326 80.6922 29.1453 80.7361 30.0501 79.8312C30.2678 79.6135 30.4318 79.3578 30.5386 79.0843L30.5323 79.0989L34.3206 69.7626C34.6539 68.9262 34.4834 67.9321 33.8283 67.2114L33.8241 67.2072C33.2985 66.6266 32.8531 66.1103 32.4691 65.6687C32.228 65.2649 31.9056 64.8481 31.5248 64.4673C30.6006 63.5431 29.4704 62.9611 28.3017 62.7261L28.3248 62.7308C26.4749 62.5989 25.276 63.7867 22.8859 66.1545ZM28.9342 68.6672C29.0571 68.8111 29.187 68.962 29.3251 69.1184L28.1427 72.0381L26.8405 69.1543C27.3549 68.6511 27.8443 68.1727 28.2153 67.8434C28.4398 68.0915 28.6926 68.3862 28.9342 68.6672Z" fill="#f9f871"/>
</svg>
