<svg width="62" height="62" viewBox="0 0 62 62" fill="none" xmlns="http://www.w3.org/2000/svg">
<path d="M17.7145 13.2856H13.2859V22.1428H17.7145V13.2856Z" fill="#f9f871"/>
<path d="M17.7145 26.5713H13.2859V35.4284H17.7145V26.5713Z" fill="#f9f871"/>
<path d="M30.9999 13.2856H26.5713V22.1428H30.9999V13.2856Z" fill="#f9f871"/>
<path d="M30.9999 26.5713H26.5713V35.4284H30.9999V26.5713Z" fill="#f9f871"/>
<path d="M17.7145 39.8569H13.2859V48.7141H17.7145V39.8569Z" fill="#f9f871"/>
<path d="M30.9999 39.8569H26.5713V48.7141H30.9999V39.8569Z" fill="#f9f871"/>
<path d="M62 26.5714C62 25.3969 61.5334 24.2705 60.7029 23.44C59.8724 22.6094 58.746 22.1429 57.5714 22.1429H44.2857V4.42857C44.2857 3.25404 43.8191 2.12762 42.9886 1.2971C42.1581 0.46658 41.0317 0 39.8571 0H4.42857C3.25404 0 2.12762 0.46658 1.2971 1.2971C0.46658 2.12762 0 3.25404 0 4.42857V62H62V26.5714ZM4.42857 4.42857H39.8571V57.5714H4.42857V4.42857ZM44.2857 57.5714V26.5714H57.5714V57.5714H44.2857Z" fill="#f9f871"/>
</svg>
