<svg width="48" height="38" viewBox="0 0 48 38" fill="none" xmlns="http://www.w3.org/2000/svg">
<path d="M17.9965 17.515C18.8461 17.515 19.5348 16.8263 19.5348 15.9767C19.5348 15.1272 18.8461 14.4385 17.9965 14.4385C17.147 14.4385 16.4583 15.1272 16.4583 15.9767C16.4583 16.8263 17.147 17.515 17.9965 17.515Z" fill="#3C3C3C"/>
<path d="M22.3378 17.515C23.1874 17.515 23.8761 16.8263 23.8761 15.9767C23.8761 15.1272 23.1874 14.4385 22.3378 14.4385C21.4883 14.4385 20.7996 15.1272 20.7996 15.9767C20.7996 16.8263 21.4883 17.515 22.3378 17.515Z" fill="#3C3C3C"/>
<path d="M26.6784 17.515C27.5279 17.515 28.2166 16.8263 28.2166 15.9767C28.2166 15.1272 27.5279 14.4385 26.6784 14.4385C25.8288 14.4385 25.1401 15.1272 25.1401 15.9767C25.1401 16.8263 25.8288 17.515 26.6784 17.515Z" fill="#3C3C3C"/>
<path d="M34.7116 5.95101C35.5611 5.95101 36.2498 5.26231 36.2498 4.41276C36.2498 3.56321 35.5611 2.87451 34.7116 2.87451C33.862 2.87451 33.1733 3.56321 33.1733 4.41276C33.1733 5.26231 33.862 5.95101 34.7116 5.95101Z" fill="#3C3C3C"/>
<path d="M39.0522 5.95101C39.9017 5.95101 40.5904 5.26231 40.5904 4.41276C40.5904 3.56321 39.9017 2.87451 39.0522 2.87451C38.2026 2.87451 37.5139 3.56321 37.5139 4.41276C37.5139 5.26231 38.2026 5.95101 39.0522 5.95101Z" fill="#3C3C3C"/>
<path d="M43.3937 5.95101C44.2433 5.95101 44.932 5.26231 44.932 4.41276C44.932 3.56321 44.2433 2.87451 43.3937 2.87451C42.5442 2.87451 41.8555 3.56321 41.8555 4.41276C41.8555 5.26231 42.5442 5.95101 43.3937 5.95101Z" fill="#3C3C3C"/>
<path d="M45.4418 9.36985e-05H27.9215C27.4974 9.36985e-05 27.1538 0.343781 27.1538 0.767718C27.1538 1.19166 27.4974 1.53534 27.9215 1.53534H45.4418C46.0058 1.53534 46.4647 1.99425 46.4647 2.55825V7.28944H18.2498V2.55816C18.2498 1.99416 18.7087 1.53525 19.2727 1.53525H24.8512C25.2752 1.53525 25.6188 1.19156 25.6188 0.767625C25.6188 0.343687 25.2752 0 24.8512 0H19.2728C17.8622 0 16.7147 1.14759 16.7147 2.55816V8.05688V11.5651H2.55816C1.14759 11.565 0 12.7126 0 14.1232V34.9527C0 36.3631 1.14759 37.5108 2.55816 37.5108H28.7273C30.1378 37.5108 31.2854 36.3632 31.2854 34.9526V25.9457H45.4419C46.8525 25.9457 48 24.7982 48 23.3875V2.55816C47.9999 1.14769 46.8524 9.36985e-05 45.4418 9.36985e-05ZM18.2498 8.82441H20.2967V11.565H18.2498V8.82441ZM1.53516 14.1232C1.53516 13.5592 1.99397 13.1003 2.55806 13.1003H28.7272C29.2766 13.1003 29.7497 13.575 29.7501 14.1232V18.8544H1.53516V14.1232ZM29.7503 21.596V25.1781V34.9526C29.7503 35.5166 29.2915 35.9755 28.7274 35.9755H2.55816C1.99406 35.9755 1.53525 35.5166 1.53525 34.9526V20.3895H3.58219V24.8989C3.58219 25.3228 3.92578 25.6665 4.34981 25.6665C4.77384 25.6665 5.11744 25.3228 5.11744 24.8989V20.3895H26.1683V32.3934H5.11725V27.9376C5.11725 27.5137 4.77366 27.17 4.34963 27.17C3.92559 27.17 3.582 27.5137 3.582 27.9376V33.1611C3.582 33.585 3.92559 33.9287 4.34963 33.9287H26.9357C27.3597 33.9287 27.7033 33.585 27.7033 33.1611V20.3895H29.7502V21.596H29.7503ZM46.4648 23.3875C46.4648 23.9515 46.006 24.4104 45.442 24.4104H31.2855V22.3635H37.6102C38.0343 22.3635 38.3779 22.0198 38.3779 21.5959C38.3779 21.1719 38.0343 20.8282 37.6102 20.8282H31.2855C31.2855 20.8282 31.2855 14.1234 31.2855 14.1227C31.2803 13.7827 31.216 13.4376 31.0829 13.1241C30.7767 12.4028 30.1405 11.866 29.3994 11.6592C29.1807 11.5981 28.9548 11.5651 28.7275 11.5651H21.8321V8.82441H42.8828V20.8283H40.6807C40.2566 20.8283 39.913 21.172 39.913 21.596C39.913 22.0199 40.2566 22.3636 40.6807 22.3636H43.6505C44.0745 22.3636 44.4181 22.0199 44.4181 21.596V8.82441H46.465V23.3875H46.4648Z" fill="#3C3C3C"/>
</svg>
